<?xml version="1.0" encoding="UTF-8" standalone="no"?>
<!-- Created with Inkscape (http://www.inkscape.org/) -->

<svg
   xmlns:dc="http://purl.org/dc/elements/1.1/"
   xmlns:cc="http://creativecommons.org/ns#"
   xmlns:rdf="http://www.w3.org/1999/02/22-rdf-syntax-ns#"
   xmlns:svg="http://www.w3.org/2000/svg"
   xmlns="http://www.w3.org/2000/svg"
   xmlns:sodipodi="http://sodipodi.sourceforge.net/DTD/sodipodi-0.dtd"
   xmlns:inkscape="http://www.inkscape.org/namespaces/inkscape"
   width="11.050256cm"
   height="3.8596261cm"
   viewBox="0 0 110.50256 38.59626"
   version="1.1"
   id="svg8"
   inkscape:version="0.92.1 r15371"
   sodipodi:docname="lineart.svg">
  <defs
     id="defs2">
    <marker
       inkscape:stockid="DotL"
       orient="auto"
       refY="0"
       refX="0"
       id="DotL"
       style="overflow:visible"
       inkscape:isstock="true">
      <path
         id="path4601"
         d="m -2.5,-1 c 0,2.76 -2.24,5 -5,5 -2.76,0 -5,-2.24 -5,-5 0,-2.76 2.24,-5 5,-5 2.76,0 5,2.24 5,5 z"
         style="fill:#000000;fill-opacity:1;fill-rule:evenodd;stroke:#000000;stroke-width:1.00000003pt;stroke-opacity:1"
         transform="matrix(0.8,0,0,0.8,5.92,0.8)"
         inkscape:connector-curvature="0" />
    </marker>
  </defs>
  <sodipodi:namedview
     id="base"
     pagecolor="#ffffff"
     bordercolor="#666666"
     borderopacity="1.0"
     inkscape:pageopacity="0.0"
     inkscape:pageshadow="2"
     inkscape:zoom="1.4"
     inkscape:cx="151.55483"
     inkscape:cy="62.258831"
     inkscape:document-units="mm"
     inkscape:current-layer="layer1"
     showgrid="false"
     inkscape:snap-global="false"
     fit-margin-left="0.5"
     units="cm"
     fit-margin-top="0.6"
     fit-margin-bottom="0.4"
     fit-margin-right="0.5"
     inkscape:window-width="1366"
     inkscape:window-height="704"
     inkscape:window-x="-4"
     inkscape:window-y="-4"
     inkscape:window-maximized="1" />
  <metadata
     id="metadata5">
    <rdf:RDF>
      <cc:Work
         rdf:about="">
        <dc:format>image/svg+xml</dc:format>
        <dc:type
           rdf:resource="http://purl.org/dc/dcmitype/StillImage" />
        <dc:title></dc:title>
      </cc:Work>
    </rdf:RDF>
  </metadata>
  <g
     inkscape:label="Layer 1"
     inkscape:groupmode="layer"
     id="layer1"
     transform="translate(-61.310784,-96.29182)">
    <path
       style="fill:#000000;stroke-width:1"
       d="m 83.031723,129.50698 c -0.138483,-0.80428 -0.313803,-3.17735 -0.389597,-5.27349 -0.07579,-2.09613 -0.297618,-4.10975 -0.49294,-4.47472 -0.195326,-0.36497 -0.355138,-1.05766 -0.355138,-1.53932 0,-0.48165 -0.198438,-0.9476 -0.440973,-1.03543 -0.350731,-0.12702 -0.351902,-0.31066 -0.0057,-0.89739 0.824509,-1.39745 0.284823,-1.71781 -3.20107,-1.90014 -3.091021,-0.16168 -4.687214,-0.61076 -5.246,-1.47591 -0.13789,-0.21349 -1.646015,-0.46754 -3.351389,-0.56455 -2.940918,-0.1673 -3.106819,-0.21978 -3.219743,-1.01844 -0.06548,-0.46312 0.04954,-0.94625 0.255605,-1.0736 0.206065,-0.12736 1.688391,-0.12239 3.29406,0.011 1.605668,0.13342 4.864082,0.35266 7.240922,0.48719 l 4.321528,0.24461 0.0032,-2.23581 c 0.0066,-4.82089 0.686446,-7.16157 1.764443,-6.07501 0.255979,0.25801 1.481346,6.81472 1.515008,8.10651 0.007,0.26837 2.178812,0.37734 7.095032,0.35597 7.02025,-0.0305 12.207309,0.2367 12.899559,0.66454 0.49507,0.30597 0.4513,1.149 -0.0687,1.32232 -0.6696,0.22315 -2.0419,-0.12752 -2.0419,-0.52177 0,-0.2113 0.46554,-0.26642 1.14653,-0.13575 0.81528,0.15643 0.99364,0.11977 0.61736,-0.12689 -0.29105,-0.19078 -1.22084,-0.34932 -2.06622,-0.35229 -1.26222,-0.004 -1.4985,0.0951 -1.32146,0.55642 0.14404,0.37535 -0.0203,0.62351 -0.49528,0.7477 -0.39098,0.10225 -0.782262,0.52412 -0.869518,0.9375 -0.346452,1.64137 -0.866916,4.68694 -0.96484,5.64591 l -0.103519,1.01376 4.938887,0.97165 c 7.73703,1.52213 12.99601,2.47167 13.68121,2.47022 0.34564,-7.1e-4 0.71981,0.23679 0.8315,0.52783 0.11575,0.30164 0.64189,0.52917 1.22365,0.52917 0.56132,0 1.02059,0.17725 1.02059,0.3939 0,0.22865 0.36552,0.32403 0.87127,0.22735 0.47919,-0.0916 0.78733,-0.0307 0.68473,0.13527 -0.28698,0.46434 0.63564,0.33478 1.619,-0.22736 1.01096,-0.57792 1.53969,-0.66984 1.26123,-0.21928 -0.74905,1.21199 -7.62625,2.55395 -9.08566,1.7729 -0.36005,-0.19269 -2.27592,-0.43356 -4.25749,-0.53527 -1.98157,-0.10169 -3.76471,-0.30726 -3.96255,-0.4568 -0.19784,-0.14954 -0.98979,-0.28265 -1.7599,-0.2958 -0.77011,-0.0132 -1.45794,-0.19711 -1.5285,-0.4088 -0.0733,-0.21991 -0.49351,-0.29324 -0.98026,-0.17107 -0.46858,0.11761 -1.13013,0.0914 -1.47011,-0.0583 -0.64924,-0.28585 -1.27552,-0.39243 -2.734819,-0.46539 -0.585647,-0.0293 -0.883758,-0.25151 -0.887346,-0.66146 -0.0043,-0.494 -0.06768,-0.51901 -0.317073,-0.12515 -0.332599,0.52527 -3.103993,0.36714 -3.520729,-0.20088 -0.117557,-0.16023 -0.999356,-0.33299 -1.959554,-0.3839 -1.159669,-0.0615 -1.996398,-0.32799 -2.492181,-0.79375 -0.410503,-0.38565 -1.153312,-0.70118 -1.65069,-0.70118 -0.497374,0 -1.47423,-0.23813 -2.170793,-0.52917 -0.69656,-0.29104 -1.330195,-0.52917 -1.408078,-0.52917 -0.07788,0 -0.122671,2.16602 -0.09952,4.81337 0.03679,4.20878 -0.03055,4.82449 -0.536106,4.90192 -0.425591,0.0652 -0.644634,-0.29737 -0.829973,-1.37378 z m 0.776961,-4.30359 c -0.16819,-3.5596 -0.114833,-4.46499 0.271886,-4.61339 0.498969,-0.19147 1.055963,-1.2196 0.611198,-1.12818 -0.549843,0.11302 -1.486609,-0.51758 -1.486609,-1.00074 0,-0.28173 -0.158168,-0.41449 -0.351483,-0.29502 -0.221809,0.13709 -0.157653,0.59206 0.173891,1.2332 0.288957,0.55878 0.428378,1.26874 0.309824,1.57769 -0.251831,0.65626 0.196719,8.65519 0.485348,8.65519 0.107361,0 0.101035,-1.99294 -0.01404,-4.42875 z m 36.085366,1.25375 c -0.29104,-0.18809 -0.92604,-0.32562 -1.41111,-0.30563 -0.81363,0.0335 -0.79996,0.0572 0.17639,0.30563 1.52486,0.38801 1.83513,0.38801 1.23472,0 z m -10.27148,-0.79375 c -0.029,-0.56239 -0.0867,-0.62013 -0.19808,-0.19808 -0.0864,0.32762 -0.42521,0.66639 -0.75282,0.75283 -0.42206,0.11135 -0.36432,0.16908 0.19807,0.19808 0.61103,0.0315 0.78433,-0.1418 0.75283,-0.75283 z m 7.44926,0.33775 c 0,-0.2508 -0.67834,-0.63742 -1.50741,-0.85917 -2.02049,-0.54039 -5.46708,-0.92995 -4.99325,-0.56437 0.20818,0.16062 0.47788,0.56169 0.59933,0.89126 0.16462,0.44674 0.74158,0.63175 2.26732,0.72705 1.12558,0.0703 2.40369,0.15784 2.84026,0.19453 0.44817,0.0377 0.79375,-0.13183 0.79375,-0.3893 z m -11.40648,-0.73032 c 0,-0.29251 -0.25326,-0.41453 -0.64677,-0.31163 -0.35571,0.093 -0.64675,0.30937 -0.64675,0.48076 0,0.1714 0.29104,0.31164 0.64675,0.31164 0.35572,0 0.64677,-0.21635 0.64677,-0.48077 z m -2.88102,-0.22479 c -0.11992,-0.19403 -0.36741,-0.35278 -0.54999,-0.35278 -0.18258,0 -0.33196,0.15875 -0.33196,0.35278 0,0.19403 0.2475,0.35278 0.54999,0.35278 0.30249,0 0.45187,-0.15875 0.33196,-0.35278 z m -3.175004,-0.70556 c -0.119916,-0.19402 -0.456152,-0.35277 -0.747194,-0.35277 -0.291041,0 -0.431055,0.15875 -0.311139,0.35277 0.119916,0.19403 0.456152,0.35278 0.747194,0.35278 0.291041,0 0.431055,-0.15875 0.311139,-0.35278 z m -2.293055,-0.13864 c 0,-0.0763 -0.24637,-0.23319 -0.54749,-0.34874 -0.313944,-0.12047 -0.455549,-0.0613 -0.331957,0.13865 0.207172,0.33521 0.879447,0.49581 0.879447,0.21009 z m -1.763889,-0.56691 c 0.456032,-0.29471 0.446719,-0.34272 -0.06737,-0.34738 -0.328097,-0.003 -0.694655,0.15335 -0.814571,0.34738 -0.275936,0.44647 0.191075,0.44647 0.881945,0 z m -1.960612,-0.31988 c 0.108733,-0.17593 -0.120022,-0.23679 -0.508346,-0.13524 -0.823733,0.21541 -0.927859,0.45512 -0.197697,0.45512 0.279591,0 0.597309,-0.14394 0.706043,-0.31988 z m -1.028665,-0.67032 c -0.108617,-0.10862 -0.393273,-2.3e-4 -0.632577,0.24087 -0.345814,0.34841 -0.305293,0.38893 0.197485,0.19748 0.347917,-0.13248 0.543709,-0.32974 0.435092,-0.43835 z m -1.692377,-0.28127 c -0.117229,-0.11723 -0.421499,-0.12976 -0.676159,-0.0278 -0.281422,0.11262 -0.197831,0.19621 0.213138,0.21314 0.371884,0.0153 0.580245,-0.0681 0.463021,-0.18529 z m 5.624996,-1.43056 c -0.09755,-0.0975 -0.548143,0.0242 -1.001321,0.27058 l -0.823966,0.44793 0.881945,0.21884 c 0.817093,0.20275 1.452283,-0.42841 0.943342,-0.93735 z m -5.624996,0.725 c -0.117229,-0.11722 -0.421499,-0.12975 -0.676159,-0.0278 -0.281422,0.11261 -0.197831,0.19621 0.213138,0.21313 0.371884,0.0153 0.580245,-0.0681 0.463021,-0.18528 z m 3.823373,-3.31464 c 0.03514,-3.40447 0.126567,-4.37708 0.386998,-4.11665 0.128848,0.12885 0.219011,1.62375 0.20036,3.32199 -0.02692,2.45078 0.05211,2.97217 0.383088,2.52759 0.229352,-0.30807 0.576566,-0.50624 0.771589,-0.44037 0.670394,0.22642 1.397543,-2.16624 1.42578,-4.69145 0.02399,-2.14413 -0.04421,-2.4446 -0.460337,-2.02848 -0.268665,0.26867 -0.67558,0.49065 -0.904257,0.4933 -0.228674,0.003 -0.772961,0.10054 -1.209524,0.21754 -0.47625,0.12762 -0.79375,0.0551 -0.79375,-0.18121 0,-0.21666 0.277813,-0.3949 0.617361,-0.3961 0.339549,-10e-4 1.072071,-0.23932 1.627826,-0.52916 0.555756,-0.28985 1.336277,-0.527 1.734489,-0.527 0.398215,0 0.634876,-0.0892 0.52591,-0.19811 -0.181959,-0.18196 -3.156341,-0.19696 -8.031349,-0.0405 -1.600444,0.0514 -1.938613,0.17186 -1.940278,0.69132 -0.0025,0.81533 -0.792872,1.30037 -2.118681,1.30037 -0.812003,0 -0.935168,-0.0796 -0.529167,-0.34198 0.352778,-0.22798 0.382175,-0.34377 0.08819,-0.34737 -0.242534,-0.003 -0.401284,-0.20384 -0.352777,-0.44638 0.04885,-0.24425 -0.32657,-0.48903 -0.841566,-0.5487 -1.017196,-0.11786 -1.472798,-1.28321 -1.888769,-4.83116 -0.113742,-0.97014 -0.31236,-2.24014 -0.441374,-2.82222 -0.215988,-0.97452 -0.254392,-0.91864 -0.484897,0.70556 -0.137685,0.97014 -0.264241,2.86023 -0.281238,4.20021 l -0.03091,2.43633 -5.203473,-0.22643 c -2.86191,-0.12454 -6.235347,-0.30455 -7.496528,-0.40002 -1.942225,-0.14702 -2.077159,-0.1239 -0.881944,0.15111 0.776111,0.17857 4.002913,0.49066 7.17067,0.69353 3.167761,0.20286 5.906199,0.45947 6.085417,0.57024 0.179222,0.11076 0.328288,0.62858 0.331259,1.15071 0.0028,0.52212 0.1457,1.17089 0.317175,1.4417 0.385251,0.60842 1.441312,0.25576 1.441312,-0.48131 0,-0.74799 0.303633,-0.67622 1.07242,0.25351 0.531319,0.64254 0.620346,1.17605 0.46735,2.80058 l -0.189001,2.00682 1.267224,0.23773 c 0.696972,0.13076 1.742426,0.16799 2.323225,0.0827 0.580803,-0.0852 1.056005,-0.0237 1.056005,0.13669 0,0.56386 2.213017,0.29469 2.67759,-0.32568 0.418141,-0.55837 0.442504,-0.53883 0.254978,0.2045 -0.18548,0.73521 -0.09995,0.8096 0.811297,0.70556 1.003744,-0.11461 1.018981,-0.14983 1.042299,-2.40937 z m -0.680406,0.88195 c 0.111686,-0.29104 0.265452,-0.52917 0.341708,-0.52917 0.07625,0 0.138645,0.23813 0.138645,0.52917 0,0.29104 -0.153769,0.52916 -0.341707,0.52916 -0.187936,0 -0.250328,-0.23812 -0.138646,-0.52916 z m -11.133462,-5.32107 c 0.01693,-0.41096 0.10052,-0.49456 0.213134,-0.21313 0.101907,0.25466 0.08938,0.55893 -0.02783,0.67615 -0.117228,0.11723 -0.200604,-0.0911 -0.185286,-0.46302 z m 1.669891,-1.09353 c 0.25466,-0.10191 0.558931,-0.0894 0.676159,0.0278 0.117224,0.11723 -0.09114,0.20061 -0.463021,0.18529 -0.410969,-0.0169 -0.494559,-0.10052 -0.213138,-0.21313 z m -0.01263,4.32336 c -0.03899,-0.47108 -0.181056,-0.78842 -0.315708,-0.7052 -0.238178,0.1472 -0.007,1.56171 0.255302,1.56171 0.07221,0 0.09939,-0.38543 0.06041,-0.85651 z m 14.078109,-0.62074 c -0.112614,-0.28142 -0.196208,-0.19783 -0.213134,0.21314 -0.01531,0.37188 0.06806,0.58024 0.185286,0.46302 0.117224,-0.11723 0.129755,-0.4215 0.02783,-0.67616 z M 79.229074,113.544 c -0.117228,-0.11722 -0.421498,-0.12975 -0.676158,-0.0278 -0.281422,0.11261 -0.197831,0.19621 0.213138,0.21313 0.371884,0.0153 0.580245,-0.0681 0.46302,-0.18528 z m 59.362196,14.44438 c 0,-0.59223 0.44238,-0.78257 2.69872,-1.16116 0.94105,-0.1579 1.30408,-0.30576 0.80672,-0.32859 -0.49736,-0.0228 -3.95084,-0.59997 -7.6744,-1.28256 -3.72356,-0.68259 -7.20601,-1.15554 -7.73877,-1.051 -0.85931,0.16861 -0.8875,0.1471 -0.24972,-0.19057 0.39541,-0.20935 0.87262,-0.72858 1.06047,-1.15386 0.30953,-0.70077 0.56413,-0.76426 2.7174,-0.67753 1.30673,0.0526 2.76818,0.24485 3.24767,0.42715 0.80486,0.30601 1.12568,0.49726 1.33786,-0.63378 0.12641,-0.6738 0.012,-1.28503 0.0464,-1.92645 0.0176,-0.32894 0.0583,-0.65628 0.0819,-0.98484 0.0248,-0.34465 0.0302,-0.69072 0.0627,-1.03472 0.0335,-0.35411 -0.0241,-1.05833 0.13635,-1.05833 0.16043,0 0.29168,-0.13125 0.29168,-0.29168 0,-0.16042 -0.45924,-0.22427 -1.02052,-0.1419 -0.56129,0.0824 -1.58813,-0.11956 -2.28186,-0.44875 -1.03972,-0.49338 -2.09429,-0.57692 -6.00211,-0.47547 -2.60743,0.0677 -4.55716,0.006 -4.33273,-0.1361 0.22443,-0.14255 -0.30632,-0.24283 -1.17945,-0.22285 -1.44778,0.0331 -1.49435,0.06 -0.52916,0.30564 0.89226,0.22704 0.75807,0.27585 -0.85524,0.31104 l -1.91358,0.0417 0.82854,0.88194 c 0.4557,0.48507 0.65149,0.88195 0.43509,0.88195 -0.2164,0 -0.47868,-0.1379 -0.58284,-0.30644 -0.10416,-0.16854 -0.8676,-0.41695 -1.69652,-0.55202 -1.46305,-0.23839 -1.48267,-0.25882 -0.67089,-0.69884 0.82075,-0.44489 0.81097,-0.45744 -0.52917,-0.67882 -1.9105,-0.31561 -4.364,-0.28812 -4.364,0.0489 0,0.15523 0.1905,0.47273 0.42333,0.70556 0.32926,0.32926 0.25925,0.42333 -0.31503,0.42333 -0.40611,0 -0.83607,-0.25459 -0.95548,-0.56576 -0.12685,-0.33058 -0.4414,-0.4797 -0.75665,-0.35873 -0.32629,0.12521 -0.62558,-0.0346 -0.75722,-0.40437 -0.11971,-0.33628 -0.62964,-0.96289 -1.13317,-1.39248 -0.58804,-0.50169 -0.73366,-0.7856 -0.40711,-0.79375 0.36708,-0.009 0.31805,-0.15666 -0.17639,-0.53063 -0.63686,-0.4817 -0.57907,-0.51873 0.82559,-0.52917 0.94093,-0.007 1.57835,0.1659 1.69065,0.45856 0.10548,0.27488 0.7229,0.46892 1.48823,0.46771 0.71938,-0.001 5.03859,0.12537 9.59825,0.28113 10.36007,0.3539 10.16464,0.35336 11.59761,0.0316 0.84411,-0.18954 1.11969,-0.15252 0.94684,0.12716 -0.16894,0.27334 0.25084,0.36619 1.36678,0.3023 1.70342,-0.0975 1.29827,-0.62013 1.4797,-1.23685 0.14116,-0.47986 0.14023,-1.08207 0.18973,-1.62524 0.0859,-0.94288 0.11555,-1.8901 0.1861,-2.83425 0.0713,-0.95486 0.13308,-1.91098 0.23986,-2.86252 0.10594,-0.9441 0.39743,-2.82222 0.39743,-2.82222 l 1.23472,0.029 c 0.6791,0.016 3.69535,0.53856 6.70278,1.1613 4.01439,0.83125 5.60873,1.31021 5.99722,1.80165 0.29104,0.36817 1.00542,0.78284 1.5875,0.92149 1.39984,0.33344 1.52236,0.58909 1.21901,2.54364 -0.14142,0.91122 -0.2033,3.1252 -0.1375,4.91996 0.0658,1.79476 -0.003,3.26319 -0.15215,3.26319 -0.14947,0 -0.45609,1.37765 -0.68138,3.06143 -0.22529,1.68378 -0.61137,3.18948 -0.85796,3.34599 -0.28571,0.18133 -0.30438,0.28652 -0.0515,0.28996 0.21828,0.003 0.49213,0.48165 0.60854,1.06373 l 0.21167,1.05834 h 7.24076 c 6.9168,0 7.24077,0.0304 7.24077,0.68052 0,0.5188 -0.48207,0.83319 -2.02847,1.32292 -1.78486,0.56524 -3.47962,0.64756 -14.11112,0.68539 -10.15526,0.0361 -12.08264,-0.036 -12.08264,-0.45204 z m 8.00678,-0.34483 c -0.56671,-0.56671 -3.05217,-0.74822 -4.7942,-0.35011 l -1.90269,0.43483 3.44381,0.053 c 1.8941,0.0292 3.35799,-0.0328 3.25308,-0.13773 z m 14.92378,-0.14419 c -0.40415,-0.2735 -0.32081,-0.3128 0.35278,-0.16635 0.48507,0.10546 1.35819,0.0515 1.94027,-0.11991 l 1.05834,-0.31165 -0.88195,-0.2374 c -1.51628,-0.40816 -11.39034,-0.0824 -11.54414,0.38083 -0.20207,0.60863 0.69054,0.73778 5.37053,0.77705 2.96659,0.0249 4.07499,-0.0716 3.70417,-0.32257 z m -10.24036,-0.77764 c -0.005,-0.24253 -0.48164,-0.90399 -1.05833,-1.4699 -0.57669,-0.56592 -1.04853,-1.22574 -1.04853,-1.46628 0,-0.26277 -0.27993,-0.36414 -0.70127,-0.25396 -1.07126,0.28014 -1.2073,-0.64336 -0.56464,-3.83282 0.31772,-1.57679 0.48122,-2.96339 0.36334,-3.08134 -0.11788,-0.11794 -2.88323,-0.26345 -6.14523,-0.32335 l -5.9309,-0.10891 -0.18116,2.04919 c -0.28643,3.24005 -0.16932,3.93214 0.70243,4.15093 0.50785,0.12747 0.75307,0.44134 0.71718,0.91794 -0.0506,0.67169 -0.22177,0.71078 -2.35924,0.53883 -2.97036,-0.23897 -1.7785,0.0759 5.9856,1.5811 3.20146,0.62067 6.05896,1.26115 6.35,1.42329 0.86111,0.47973 3.88202,0.3824 3.87075,-0.12472 z m -4.78349,-0.59717 c -1.51661,-0.36257 -1.90949,-0.66134 -1.90949,-1.45212 0,-0.58585 0.25294,-0.68473 1.75148,-0.68473 1.41238,0 1.82744,0.14193 2.14383,0.73312 0.45254,0.84557 0.21524,1.75293 -0.44465,1.70021 -0.24863,-0.0199 -0.94215,-0.15328 -1.54117,-0.29648 z m -7.37754,-1.68285 c -0.38806,-0.0933 -0.85637,-0.31305 -1.0407,-0.48824 -0.46387,-0.4409 0.58234,-0.40828 1.80415,0.0562 0.69577,0.26453 1.02251,0.26453 1.1107,0 0.18863,-0.56591 0.77168,-0.44927 0.77168,0.15438 0,0.53115 -1.10828,0.64744 -2.64583,0.27761 z m 2.64583,-2.70542 c 0,-0.29104 0.15875,-0.62728 0.35278,-0.74719 0.19403,-0.11992 0.35278,0.0201 0.35278,0.31114 0,0.29104 -0.15875,0.62727 -0.35278,0.74719 -0.19403,0.11992 -0.35278,-0.0201 -0.35278,-0.31114 z m 2.08468,-0.59804 c -0.30504,-0.19311 -0.33791,-0.31683 -0.0851,-0.32014 0.22667,-0.003 0.66323,-0.10176 0.97014,-0.21954 0.30691,-0.11777 0.55802,-0.0554 0.55802,0.13865 0,0.5207 -0.87149,0.76289 -1.4431,0.40103 z m 7.7931,3.39944 c 0,-0.0856 -0.15875,-0.25368 -0.35278,-0.37359 -0.19403,-0.11992 -0.35278,-0.0499 -0.35278,0.15556 0,0.20548 0.15875,0.3736 0.35278,0.3736 0.19403,0 0.35278,-0.07 0.35278,-0.15557 z m -1.5287,-0.71085 c 0,-0.28251 -0.13488,-0.43029 -0.29974,-0.3284 -0.16485,0.10188 -0.2084,0.33302 -0.0968,0.51364 0.28526,0.46157 0.39651,0.4096 0.39651,-0.18524 z m -17.77917,-0.42331 c -0.23884,-0.0966 -0.71509,-0.10252 -1.05833,-0.0131 -0.34325,0.0894 -0.14783,0.16851 0.43426,0.1757 0.58208,0.007 0.86291,-0.066 0.62407,-0.16263 z m -2.11667,-0.35278 c -0.23884,-0.0966 -0.71509,-0.10251 -1.05833,-0.0131 -0.34324,0.0894 -0.14782,0.16851 0.43426,0.1757 0.58208,0.007 0.86291,-0.066 0.62407,-0.16263 z m 6.15955,0.0183 c -0.11722,-0.11722 -0.4215,-0.12975 -0.67616,-0.0278 -0.28142,0.11261 -0.19783,0.19621 0.21314,0.21313 0.37189,0.0153 0.58025,-0.0681 0.46302,-0.18528 z m 15.43757,-3.64117 c 0.44626,-3.07841 0.38274,-3.20941 -1.39155,-2.87003 -0.95799,0.18325 -1.07876,0.37816 -1.48843,2.40223 -0.28493,1.40778 -0.33051,2.48976 -0.1263,2.99788 0.24447,0.60828 0.32479,0.65003 0.34189,0.1777 0.02,-0.5515 0.10139,-0.53833 0.7632,0.12348 1.04987,1.04987 1.41807,0.50155 1.90119,-2.83126 z m -1.67923,-3.76716 c -0.11723,-0.11722 -0.4215,-0.12975 -0.67616,-0.0278 -0.28142,0.11261 -0.19783,0.1962 0.21314,0.21313 0.37188,0.0153 0.58024,-0.0681 0.46302,-0.18528 z m -2.55029,-0.49243 c -0.58209,-0.14811 -1.37584,-0.27226 -1.76389,-0.27587 -0.55288,-0.005 -0.5147,0.0545 0.17639,0.27587 0.48507,0.15535 1.27882,0.27949 1.76388,0.27588 0.7922,-0.006 0.77425,-0.034 -0.17638,-0.27588 z m 4.77224,-0.37097 c 0.66946,-1.25091 0.28792,-2.2019 -1.01857,-2.5387 -1.40681,-0.36268 -1.43524,-0.34231 -1.68698,1.20899 -0.16588,1.02225 -0.0682,1.27048 0.63245,1.60733 1.21817,0.58565 1.64142,0.52897 2.0731,-0.27762 z m -13.4153,-0.0504 c -3.00743,-0.1732 -6.02368,-0.32733 -6.70278,-0.34252 -0.6791,-0.0152 -6.23535,-0.18729 -12.34722,-0.38246 -9.3643,-0.29904 -11.18187,-0.44162 -11.55347,-0.90639 -0.24254,-0.30334 -0.44098,-0.38188 -0.44098,-0.17452 0,0.94068 1.43522,1.1157 12.34723,1.50563 6.3059,0.22533 12.0209,0.4532 12.7,0.50637 0.67909,0.0532 3.53659,0.0994 6.35,0.10274 l 5.11528,0.006 -5.46806,-0.31492 z m 9.87778,-1.68286 c 0,-1.57548 0.67097,-2.17273 2.12804,-1.89419 0.82902,0.15848 0.90878,0.0439 1.2443,-1.78765 0.37873,-2.06741 0.23958,-2.3278 -1.24396,-2.3278 -0.34987,0 -0.8835,-0.37753 -1.18584,-0.83896 -0.30234,-0.46143 -0.99528,-0.91584 -1.53988,-1.0098 -0.54459,-0.094 -2.62058,-0.52041 -4.61331,-0.94766 -1.99273,-0.42726 -4.05648,-0.72691 -4.58611,-0.6659 -0.95825,0.11039 -0.96609,0.13402 -1.60103,4.82333 -0.35094,2.59181 -0.58907,4.75677 -0.52917,4.811 0.0599,0.0542 2.0139,0.21385 4.34224,0.35468 2.32833,0.14084 4.74873,0.29045 5.37865,0.33247 0.62993,0.042 1.25171,0.18278 1.38172,0.31279 0.54526,0.54526 0.82435,0.15176 0.82435,-1.16231 z m -1.5623,-1.27233 c -0.12976,-0.517 -0.15656,-1.01938 -0.0595,-1.11639 0.097,-0.097 0.28256,0.24661 0.41231,0.76361 0.12976,0.517 0.15655,1.01937 0.0595,1.11639 -0.097,0.097 -0.28255,-0.24662 -0.41231,-0.76361 z m 0.0943,-5.19004 c 0.40854,-0.40853 0.84113,-0.64445 0.96132,-0.52427 0.357,0.357 -0.32337,1.14895 -1.03971,1.21023 -0.62122,0.0531 -0.61612,0.009 0.0784,-0.68596 z m -3.46072,0.11374 c -0.86058,-0.54425 -0.26061,-0.65164 0.87172,-0.15604 0.80238,0.35118 0.8877,0.46575 0.35278,0.47372 -0.38805,0.006 -0.93908,-0.13718 -1.2245,-0.31768 z m -4.24355,-1.09294 c 0,-0.20548 0.15875,-0.27548 0.35277,-0.15557 0.19403,0.11992 0.35278,0.28804 0.35278,0.3736 0,0.0856 -0.15875,0.15557 -0.35278,0.15557 -0.19402,0 -0.35277,-0.16812 -0.35277,-0.3736 z m -2.58124,-1.80921 c -0.11261,-0.28142 -0.19621,-0.19783 -0.21313,0.21314 -0.0153,0.37188 0.0681,0.58024 0.18528,0.46302 0.11723,-0.11723 0.12976,-0.4215 0.0278,-0.67616 z m -25.11182,13.4717 c -0.11992,-0.19403 -0.0499,-0.35278 0.15557,-0.35278 0.20548,0 0.3736,0.15875 0.3736,0.35278 0,0.19403 -0.07,0.35278 -0.15557,0.35278 -0.0856,0 -0.25368,-0.15875 -0.3736,-0.35278 z m 0.17639,-1.07915 c 0,-0.20548 0.15875,-0.27549 0.35278,-0.15557 0.19402,0.11991 0.35277,0.28803 0.35277,0.3736 0,0.0856 -0.15875,0.15556 -0.35277,0.15556 -0.19403,0 -0.35278,-0.16812 -0.35278,-0.37359 z m -10.40695,-3.50696 c -0.11991,-0.19403 -0.0499,-0.35278 0.15557,-0.35278 0.20548,0 0.3736,0.15875 0.3736,0.35278 0,0.19403 -0.07,0.35278 -0.15557,0.35278 -0.0856,0 -0.25368,-0.15875 -0.3736,-0.35278 z"
       id="path4518"
       inkscape:connector-curvature="0"
       sodipodi:nodetypes="cccsccccccccccccccccsccccccsccccssccccccscsccccccccscscccccccscccscccccccccccscscccsscssscsssccscscsccscccccccsccsccccccccccccccccccccccccccsccscccsccccscccccccccccscscccsccccccssscccccccccccccscccccccccccccccsccccccaaassccccccccssscccssscccscccccscccsaaaccscccsssccccssccccccccccccccccccccscccsccccccsccsscccccccsccscssscccsccscssscccccccccccccccccccccccccsccccccccccccccccccccsscccccsscsscccccccssccccccccccccccscssscccccsssssscssscsssc" />
    <path
       style="fill:none;stroke:#000000;stroke-width:0.565;stroke-linecap:round;stroke-linejoin:miter;stroke-miterlimit:4;stroke-dasharray:none;stroke-opacity:1"
       d="m 118.1611,116.13596 c 1.37351,0.32763 2.61262,0.63274 3.9314,1.44183 1.31879,0.80908 2.77442,2.76418 3.73171,3.46997 0.95728,0.70579 1.76905,1.01656 1.76905,1.01656"
       id="path4538"
       inkscape:connector-curvature="0"
       sodipodi:nodetypes="czzc" />
  </g>
</svg>
