<?xml version="1.0" encoding="UTF-8" standalone="no"?>
<!-- Created with Inkscape (http://www.inkscape.org/) -->

<svg
   version="1.1"
   id="svg1"
   width="476"
   height="356"
   viewBox="0 0 476 356"
   sodipodi:docname="pitmom.eps"
   xmlns:inkscape="http://www.inkscape.org/namespaces/inkscape"
   xmlns:sodipodi="http://sodipodi.sourceforge.net/DTD/sodipodi-0.dtd"
   xmlns="http://www.w3.org/2000/svg"
   xmlns:svg="http://www.w3.org/2000/svg">
  <defs
     id="defs1" />
  <sodipodi:namedview
     id="namedview1"
     pagecolor="#ffffff"
     bordercolor="#000000"
     borderopacity="0.25"
     inkscape:showpageshadow="2"
     inkscape:pageopacity="0.0"
     inkscape:pagecheckerboard="0"
     inkscape:deskcolor="#d1d1d1">
    <inkscape:page
       x="0"
       y="0"
       inkscape:label="1"
       id="page1"
       width="476"
       height="356"
       margin="0"
       bleed="0" />
  </sodipodi:namedview>
  <g
     id="g1"
     inkscape:groupmode="layer"
     inkscape:label="1">
    <path
       id="path1"
       d="M 0,0 H 3570 V 2670 H 0 Z"
       style="fill:#ffffff;fill-opacity:1;fill-rule:nonzero;stroke:none"
       transform="matrix(0.13333333,0,0,-0.13333333,0,356)" />
    <path
       id="path2"
       d="M 0,0 H 3570 V 2670 H 0 Z"
       style="fill:#ffffff;fill-opacity:1;fill-rule:nonzero;stroke:none"
       transform="matrix(0.13333333,0,0,-0.13333333,0,356)" />
    <path
       id="path3"
       d="m 465,292.5 h 2767.5 v 2175 H 465 Z"
       style="fill:#ffffff;fill-opacity:1;fill-rule:nonzero;stroke:none"
       transform="matrix(0.13333333,0,0,-0.13333333,0,356)" />
    <path
       id="path4"
       d="m 465,292.5 v 2175"
       style="fill:none;stroke:#dfdfdf;stroke-width:5.0025;stroke-linecap:butt;stroke-linejoin:round;stroke-miterlimit:10;stroke-dasharray:none;stroke-opacity:1"
       transform="matrix(0.13333333,0,0,-0.13333333,0,356)" />
    <path
       id="path5"
       d="m 810.938,292.5 v 2175"
       style="fill:none;stroke:#dfdfdf;stroke-width:5.0025;stroke-linecap:butt;stroke-linejoin:round;stroke-miterlimit:10;stroke-dasharray:none;stroke-opacity:1"
       transform="matrix(0.13333333,0,0,-0.13333333,0,356)" />
    <path
       id="path6"
       d="m 1156.88,292.5 v 2175"
       style="fill:none;stroke:#dfdfdf;stroke-width:5.0025;stroke-linecap:butt;stroke-linejoin:round;stroke-miterlimit:10;stroke-dasharray:none;stroke-opacity:1"
       transform="matrix(0.13333333,0,0,-0.13333333,0,356)" />
    <path
       id="path7"
       d="m 1502.81,292.5 v 2175"
       style="fill:none;stroke:#dfdfdf;stroke-width:5.0025;stroke-linecap:butt;stroke-linejoin:round;stroke-miterlimit:10;stroke-dasharray:none;stroke-opacity:1"
       transform="matrix(0.13333333,0,0,-0.13333333,0,356)" />
    <path
       id="path8"
       d="m 1848.75,292.5 v 2175"
       style="fill:none;stroke:#dfdfdf;stroke-width:5.0025;stroke-linecap:butt;stroke-linejoin:round;stroke-miterlimit:10;stroke-dasharray:none;stroke-opacity:1"
       transform="matrix(0.13333333,0,0,-0.13333333,0,356)" />
    <path
       id="path9"
       d="m 2194.69,292.5 v 2175"
       style="fill:none;stroke:#dfdfdf;stroke-width:5.0025;stroke-linecap:butt;stroke-linejoin:round;stroke-miterlimit:10;stroke-dasharray:none;stroke-opacity:1"
       transform="matrix(0.13333333,0,0,-0.13333333,0,356)" />
    <path
       id="path10"
       d="m 2540.63,292.5 v 2175"
       style="fill:none;stroke:#dfdfdf;stroke-width:5.0025;stroke-linecap:butt;stroke-linejoin:round;stroke-miterlimit:10;stroke-dasharray:none;stroke-opacity:1"
       transform="matrix(0.13333333,0,0,-0.13333333,0,356)" />
    <path
       id="path11"
       d="m 2886.56,292.5 v 2175"
       style="fill:none;stroke:#dfdfdf;stroke-width:5.0025;stroke-linecap:butt;stroke-linejoin:round;stroke-miterlimit:10;stroke-dasharray:none;stroke-opacity:1"
       transform="matrix(0.13333333,0,0,-0.13333333,0,356)" />
    <path
       id="path12"
       d="m 3232.5,292.5 v 2175"
       style="fill:none;stroke:#dfdfdf;stroke-width:5.0025;stroke-linecap:butt;stroke-linejoin:round;stroke-miterlimit:10;stroke-dasharray:none;stroke-opacity:1"
       transform="matrix(0.13333333,0,0,-0.13333333,0,356)" />
    <path
       id="path13"
       d="M 3232.5,292.5 H 465"
       style="fill:none;stroke:#dfdfdf;stroke-width:5.0025;stroke-linecap:butt;stroke-linejoin:round;stroke-miterlimit:10;stroke-dasharray:none;stroke-opacity:1"
       transform="matrix(0.13333333,0,0,-0.13333333,0,356)" />
    <path
       id="path14"
       d="M 3232.5,534.164 H 465"
       style="fill:none;stroke:#dfdfdf;stroke-width:5.0025;stroke-linecap:butt;stroke-linejoin:round;stroke-miterlimit:10;stroke-dasharray:none;stroke-opacity:1"
       transform="matrix(0.13333333,0,0,-0.13333333,0,356)" />
    <path
       id="path15"
       d="M 3232.5,775.828 H 465"
       style="fill:none;stroke:#dfdfdf;stroke-width:5.0025;stroke-linecap:butt;stroke-linejoin:round;stroke-miterlimit:10;stroke-dasharray:none;stroke-opacity:1"
       transform="matrix(0.13333333,0,0,-0.13333333,0,356)" />
    <path
       id="path16"
       d="M 3232.5,1017.5 H 465"
       style="fill:none;stroke:#dfdfdf;stroke-width:5.0025;stroke-linecap:butt;stroke-linejoin:round;stroke-miterlimit:10;stroke-dasharray:none;stroke-opacity:1"
       transform="matrix(0.13333333,0,0,-0.13333333,0,356)" />
    <path
       id="path17"
       d="M 3232.5,1259.17 H 465"
       style="fill:none;stroke:#dfdfdf;stroke-width:5.0025;stroke-linecap:butt;stroke-linejoin:round;stroke-miterlimit:10;stroke-dasharray:none;stroke-opacity:1"
       transform="matrix(0.13333333,0,0,-0.13333333,0,356)" />
    <path
       id="path18"
       d="M 3232.5,1500.83 H 465"
       style="fill:none;stroke:#dfdfdf;stroke-width:5.0025;stroke-linecap:butt;stroke-linejoin:round;stroke-miterlimit:10;stroke-dasharray:none;stroke-opacity:1"
       transform="matrix(0.13333333,0,0,-0.13333333,0,356)" />
    <path
       id="path19"
       d="M 3232.5,1742.5 H 465"
       style="fill:none;stroke:#dfdfdf;stroke-width:5.0025;stroke-linecap:butt;stroke-linejoin:round;stroke-miterlimit:10;stroke-dasharray:none;stroke-opacity:1"
       transform="matrix(0.13333333,0,0,-0.13333333,0,356)" />
    <path
       id="path20"
       d="M 3232.5,1984.17 H 465"
       style="fill:none;stroke:#dfdfdf;stroke-width:5.0025;stroke-linecap:butt;stroke-linejoin:round;stroke-miterlimit:10;stroke-dasharray:none;stroke-opacity:1"
       transform="matrix(0.13333333,0,0,-0.13333333,0,356)" />
    <path
       id="path21"
       d="M 3232.5,2225.84 H 465"
       style="fill:none;stroke:#dfdfdf;stroke-width:5.0025;stroke-linecap:butt;stroke-linejoin:round;stroke-miterlimit:10;stroke-dasharray:none;stroke-opacity:1"
       transform="matrix(0.13333333,0,0,-0.13333333,0,356)" />
    <path
       id="path22"
       d="M 3232.5,2467.5 H 465"
       style="fill:none;stroke:#dfdfdf;stroke-width:5.0025;stroke-linecap:butt;stroke-linejoin:round;stroke-miterlimit:10;stroke-dasharray:none;stroke-opacity:1"
       transform="matrix(0.13333333,0,0,-0.13333333,0,356)" />
    <path
       id="path23"
       d="M 465,292.5 H 3232.5"
       style="fill:none;stroke:#262626;stroke-width:5.0025;stroke-linecap:square;stroke-linejoin:round;stroke-miterlimit:10;stroke-dasharray:none;stroke-opacity:1"
       transform="matrix(0.13333333,0,0,-0.13333333,0,356)" />
    <path
       id="path24"
       d="M 465,2467.5 H 3232.5"
       style="fill:none;stroke:#262626;stroke-width:5.0025;stroke-linecap:square;stroke-linejoin:round;stroke-miterlimit:10;stroke-dasharray:none;stroke-opacity:1"
       transform="matrix(0.13333333,0,0,-0.13333333,0,356)" />
    <path
       id="path25"
       d="m 465,292.5 v 2175"
       style="fill:none;stroke:#262626;stroke-width:5.0025;stroke-linecap:square;stroke-linejoin:round;stroke-miterlimit:10;stroke-dasharray:none;stroke-opacity:1"
       transform="matrix(0.13333333,0,0,-0.13333333,0,356)" />
    <path
       id="path26"
       d="m 3232.5,292.5 v 2175"
       style="fill:none;stroke:#262626;stroke-width:5.0025;stroke-linecap:square;stroke-linejoin:round;stroke-miterlimit:10;stroke-dasharray:none;stroke-opacity:1"
       transform="matrix(0.13333333,0,0,-0.13333333,0,356)" />
    <path
       id="path27"
       d="M 465,775.828 H 3232.5"
       style="fill:none;stroke:#262626;stroke-width:5.0025;stroke-linecap:square;stroke-linejoin:round;stroke-miterlimit:10;stroke-dasharray:none;stroke-opacity:1"
       transform="matrix(0.13333333,0,0,-0.13333333,0,356)" />
    <path
       id="path28"
       d="m 465,775.828 v 27.676"
       style="fill:none;stroke:#262626;stroke-width:5.0025;stroke-linecap:square;stroke-linejoin:round;stroke-miterlimit:10;stroke-dasharray:none;stroke-opacity:1"
       transform="matrix(0.13333333,0,0,-0.13333333,0,356)" />
    <path
       id="path29"
       d="m 810.938,775.828 v 27.676"
       style="fill:none;stroke:#262626;stroke-width:5.0025;stroke-linecap:square;stroke-linejoin:round;stroke-miterlimit:10;stroke-dasharray:none;stroke-opacity:1"
       transform="matrix(0.13333333,0,0,-0.13333333,0,356)" />
    <path
       id="path30"
       d="m 1156.88,775.828 v 27.676"
       style="fill:none;stroke:#262626;stroke-width:5.0025;stroke-linecap:square;stroke-linejoin:round;stroke-miterlimit:10;stroke-dasharray:none;stroke-opacity:1"
       transform="matrix(0.13333333,0,0,-0.13333333,0,356)" />
    <path
       id="path31"
       d="m 1502.81,775.828 v 27.676"
       style="fill:none;stroke:#262626;stroke-width:5.0025;stroke-linecap:square;stroke-linejoin:round;stroke-miterlimit:10;stroke-dasharray:none;stroke-opacity:1"
       transform="matrix(0.13333333,0,0,-0.13333333,0,356)" />
    <path
       id="path32"
       d="m 1848.75,775.828 v 27.676"
       style="fill:none;stroke:#262626;stroke-width:5.0025;stroke-linecap:square;stroke-linejoin:round;stroke-miterlimit:10;stroke-dasharray:none;stroke-opacity:1"
       transform="matrix(0.13333333,0,0,-0.13333333,0,356)" />
    <path
       id="path33"
       d="m 2194.69,775.828 v 27.676"
       style="fill:none;stroke:#262626;stroke-width:5.0025;stroke-linecap:square;stroke-linejoin:round;stroke-miterlimit:10;stroke-dasharray:none;stroke-opacity:1"
       transform="matrix(0.13333333,0,0,-0.13333333,0,356)" />
    <path
       id="path34"
       d="m 2540.63,775.828 v 27.676"
       style="fill:none;stroke:#262626;stroke-width:5.0025;stroke-linecap:square;stroke-linejoin:round;stroke-miterlimit:10;stroke-dasharray:none;stroke-opacity:1"
       transform="matrix(0.13333333,0,0,-0.13333333,0,356)" />
    <path
       id="path35"
       d="m 2886.56,775.828 v 27.676"
       style="fill:none;stroke:#262626;stroke-width:5.0025;stroke-linecap:square;stroke-linejoin:round;stroke-miterlimit:10;stroke-dasharray:none;stroke-opacity:1"
       transform="matrix(0.13333333,0,0,-0.13333333,0,356)" />
    <path
       id="path36"
       d="m 3232.5,775.828 v 27.676"
       style="fill:none;stroke:#262626;stroke-width:5.0025;stroke-linecap:square;stroke-linejoin:round;stroke-miterlimit:10;stroke-dasharray:none;stroke-opacity:1"
       transform="matrix(0.13333333,0,0,-0.13333333,0,356)" />
    <text
       id="text36"
       xml:space="preserve"
       transform="matrix(1.3333333,0,0,1.3333333,98.625067,271.88907)"><tspan
         id="tspan36"
         style="font-variant:normal;font-weight:normal;font-size:9.99975px;font-family:Helvetica;writing-mode:lr-tb;fill:#262626;fill-opacity:1;fill-rule:nonzero;stroke:none"
         x="0"
         dx="0 0 0 24.81908 24.908876 0 0 24.81908 24.908876 0 0 24.81908 24.908876"
         y="0">3.544.555.566.5</tspan><tspan
         id="tspan37"
         style="font-variant:normal;font-weight:normal;font-size:11.0002px;font-family:Helvetica;writing-mode:lr-tb;fill:#262626;fill-opacity:1;fill-rule:nonzero;stroke:none"
         x="157.78101"
         dx="0 0 0 0 0 0 0 0 0 0 0 0 0 0 0 0 0 0.61756581 -2.1001201"
         y="-23.9168">Angle of attack [°]</tspan></text>
    <path
       id="path37"
       d="m 465,292.5 v 2175"
       style="fill:none;stroke:#262626;stroke-width:5.0025;stroke-linecap:square;stroke-linejoin:round;stroke-miterlimit:10;stroke-dasharray:none;stroke-opacity:1"
       transform="matrix(0.13333333,0,0,-0.13333333,0,356)" />
    <path
       id="path38"
       d="m 3232.5,292.5 v 2175"
       style="fill:none;stroke:#262626;stroke-width:5.0025;stroke-linecap:square;stroke-linejoin:round;stroke-miterlimit:10;stroke-dasharray:none;stroke-opacity:1"
       transform="matrix(0.13333333,0,0,-0.13333333,0,356)" />
    <path
       id="path39"
       d="m 465,292.5 h 27.676"
       style="fill:none;stroke:#262626;stroke-width:5.0025;stroke-linecap:square;stroke-linejoin:round;stroke-miterlimit:10;stroke-dasharray:none;stroke-opacity:1"
       transform="matrix(0.13333333,0,0,-0.13333333,0,356)" />
    <path
       id="path40"
       d="m 465,534.164 h 27.676"
       style="fill:none;stroke:#262626;stroke-width:5.0025;stroke-linecap:square;stroke-linejoin:round;stroke-miterlimit:10;stroke-dasharray:none;stroke-opacity:1"
       transform="matrix(0.13333333,0,0,-0.13333333,0,356)" />
    <path
       id="path41"
       d="m 465,775.828 h 27.676"
       style="fill:none;stroke:#262626;stroke-width:5.0025;stroke-linecap:square;stroke-linejoin:round;stroke-miterlimit:10;stroke-dasharray:none;stroke-opacity:1"
       transform="matrix(0.13333333,0,0,-0.13333333,0,356)" />
    <path
       id="path42"
       d="m 465,1017.5 h 27.676"
       style="fill:none;stroke:#262626;stroke-width:5.0025;stroke-linecap:square;stroke-linejoin:round;stroke-miterlimit:10;stroke-dasharray:none;stroke-opacity:1"
       transform="matrix(0.13333333,0,0,-0.13333333,0,356)" />
    <path
       id="path43"
       d="m 465,1259.17 h 27.676"
       style="fill:none;stroke:#262626;stroke-width:5.0025;stroke-linecap:square;stroke-linejoin:round;stroke-miterlimit:10;stroke-dasharray:none;stroke-opacity:1"
       transform="matrix(0.13333333,0,0,-0.13333333,0,356)" />
    <path
       id="path44"
       d="m 465,1500.83 h 27.676"
       style="fill:none;stroke:#262626;stroke-width:5.0025;stroke-linecap:square;stroke-linejoin:round;stroke-miterlimit:10;stroke-dasharray:none;stroke-opacity:1"
       transform="matrix(0.13333333,0,0,-0.13333333,0,356)" />
    <path
       id="path45"
       d="m 465,1742.5 h 27.676"
       style="fill:none;stroke:#262626;stroke-width:5.0025;stroke-linecap:square;stroke-linejoin:round;stroke-miterlimit:10;stroke-dasharray:none;stroke-opacity:1"
       transform="matrix(0.13333333,0,0,-0.13333333,0,356)" />
    <path
       id="path46"
       d="m 465,1984.17 h 27.676"
       style="fill:none;stroke:#262626;stroke-width:5.0025;stroke-linecap:square;stroke-linejoin:round;stroke-miterlimit:10;stroke-dasharray:none;stroke-opacity:1"
       transform="matrix(0.13333333,0,0,-0.13333333,0,356)" />
    <path
       id="path47"
       d="m 465,2225.84 h 27.676"
       style="fill:none;stroke:#262626;stroke-width:5.0025;stroke-linecap:square;stroke-linejoin:round;stroke-miterlimit:10;stroke-dasharray:none;stroke-opacity:1"
       transform="matrix(0.13333333,0,0,-0.13333333,0,356)" />
    <path
       id="path48"
       d="m 465,2467.5 h 27.676"
       style="fill:none;stroke:#262626;stroke-width:5.0025;stroke-linecap:square;stroke-linejoin:round;stroke-miterlimit:10;stroke-dasharray:none;stroke-opacity:1"
       transform="matrix(0.13333333,0,0,-0.13333333,0,356)" />
    <path
       id="path49"
       d="m 3232.5,292.5 h -27.68"
       style="fill:none;stroke:#262626;stroke-width:5.0025;stroke-linecap:square;stroke-linejoin:round;stroke-miterlimit:10;stroke-dasharray:none;stroke-opacity:1"
       transform="matrix(0.13333333,0,0,-0.13333333,0,356)" />
    <path
       id="path50"
       d="m 3232.5,534.164 h -27.68"
       style="fill:none;stroke:#262626;stroke-width:5.0025;stroke-linecap:square;stroke-linejoin:round;stroke-miterlimit:10;stroke-dasharray:none;stroke-opacity:1"
       transform="matrix(0.13333333,0,0,-0.13333333,0,356)" />
    <path
       id="path51"
       d="m 3232.5,775.828 h -27.68"
       style="fill:none;stroke:#262626;stroke-width:5.0025;stroke-linecap:square;stroke-linejoin:round;stroke-miterlimit:10;stroke-dasharray:none;stroke-opacity:1"
       transform="matrix(0.13333333,0,0,-0.13333333,0,356)" />
    <path
       id="path52"
       d="m 3232.5,1017.5 h -27.68"
       style="fill:none;stroke:#262626;stroke-width:5.0025;stroke-linecap:square;stroke-linejoin:round;stroke-miterlimit:10;stroke-dasharray:none;stroke-opacity:1"
       transform="matrix(0.13333333,0,0,-0.13333333,0,356)" />
    <path
       id="path53"
       d="m 3232.5,1259.17 h -27.68"
       style="fill:none;stroke:#262626;stroke-width:5.0025;stroke-linecap:square;stroke-linejoin:round;stroke-miterlimit:10;stroke-dasharray:none;stroke-opacity:1"
       transform="matrix(0.13333333,0,0,-0.13333333,0,356)" />
    <path
       id="path54"
       d="m 3232.5,1500.83 h -27.68"
       style="fill:none;stroke:#262626;stroke-width:5.0025;stroke-linecap:square;stroke-linejoin:round;stroke-miterlimit:10;stroke-dasharray:none;stroke-opacity:1"
       transform="matrix(0.13333333,0,0,-0.13333333,0,356)" />
    <path
       id="path55"
       d="m 3232.5,1742.5 h -27.68"
       style="fill:none;stroke:#262626;stroke-width:5.0025;stroke-linecap:square;stroke-linejoin:round;stroke-miterlimit:10;stroke-dasharray:none;stroke-opacity:1"
       transform="matrix(0.13333333,0,0,-0.13333333,0,356)" />
    <path
       id="path56"
       d="m 3232.5,1984.17 h -27.68"
       style="fill:none;stroke:#262626;stroke-width:5.0025;stroke-linecap:square;stroke-linejoin:round;stroke-miterlimit:10;stroke-dasharray:none;stroke-opacity:1"
       transform="matrix(0.13333333,0,0,-0.13333333,0,356)" />
    <path
       id="path57"
       d="m 3232.5,2225.84 h -27.68"
       style="fill:none;stroke:#262626;stroke-width:5.0025;stroke-linecap:square;stroke-linejoin:round;stroke-miterlimit:10;stroke-dasharray:none;stroke-opacity:1"
       transform="matrix(0.13333333,0,0,-0.13333333,0,356)" />
    <path
       id="path58"
       d="m 3232.5,2467.5 h -27.68"
       style="fill:none;stroke:#262626;stroke-width:5.0025;stroke-linecap:square;stroke-linejoin:round;stroke-miterlimit:10;stroke-dasharray:none;stroke-opacity:1"
       transform="matrix(0.13333333,0,0,-0.13333333,0,356)" />
    <text
       id="text58"
       xml:space="preserve"
       transform="matrix(1.3333333,0,0,1.3333333,33.666667,322.5)"><tspan
         id="tspan58"
         style="font-variant:normal;font-weight:normal;font-size:9.99975px;font-family:Helvetica;writing-mode:lr-tb;fill:#262626;fill-opacity:1;fill-rule:nonzero;stroke:none"
         x="0"
         y="0">-0.2</tspan><tspan
         id="tspan59"
         style="font-variant:normal;font-weight:normal;font-size:9.99975px;font-family:Helvetica;writing-mode:lr-tb;fill:#262626;fill-opacity:1;fill-rule:nonzero;stroke:none"
         x="0"
         y="-24.1668">-0.1</tspan><tspan
         id="tspan60"
         style="font-variant:normal;font-weight:normal;font-size:9.99975px;font-family:Helvetica;writing-mode:lr-tb;fill:#262626;fill-opacity:1;fill-rule:nonzero;stroke:none"
         x="11.25"
         y="-48.333199">0</tspan><tspan
         id="tspan61"
         style="font-variant:normal;font-weight:normal;font-size:9.99975px;font-family:Helvetica;writing-mode:lr-tb;fill:#262626;fill-opacity:1;fill-rule:nonzero;stroke:none"
         x="3"
         y="-72.5">0.1</tspan><tspan
         id="tspan62"
         style="font-variant:normal;font-weight:normal;font-size:9.99975px;font-family:Helvetica;writing-mode:lr-tb;fill:#262626;fill-opacity:1;fill-rule:nonzero;stroke:none"
         x="3"
         y="-96.666801">0.2</tspan><tspan
         id="tspan63"
         style="font-variant:normal;font-weight:normal;font-size:9.99975px;font-family:Helvetica;writing-mode:lr-tb;fill:#262626;fill-opacity:1;fill-rule:nonzero;stroke:none"
         x="3"
         y="-120.8332">0.3</tspan><tspan
         id="tspan64"
         style="font-variant:normal;font-weight:normal;font-size:9.99975px;font-family:Helvetica;writing-mode:lr-tb;fill:#262626;fill-opacity:1;fill-rule:nonzero;stroke:none"
         x="3"
         y="-145">0.4</tspan><tspan
         id="tspan65"
         style="font-variant:normal;font-weight:normal;font-size:9.99975px;font-family:Helvetica;writing-mode:lr-tb;fill:#262626;fill-opacity:1;fill-rule:nonzero;stroke:none"
         x="3"
         y="-169.16679">0.5</tspan><tspan
         id="tspan66"
         style="font-variant:normal;font-weight:normal;font-size:9.99975px;font-family:Helvetica;writing-mode:lr-tb;fill:#262626;fill-opacity:1;fill-rule:nonzero;stroke:none"
         x="3"
         y="-193.33321">0.6</tspan><tspan
         id="tspan67"
         style="font-variant:normal;font-weight:normal;font-size:9.99975px;font-family:Helvetica;writing-mode:lr-tb;fill:#262626;fill-opacity:1;fill-rule:nonzero;stroke:none"
         x="3"
         y="-217.5">0.7</tspan></text>
    <text
       id="text67"
       xml:space="preserve"
       transform="matrix(0,-1.3333333,1.3333333,0,25.666667,237.5)"><tspan
         id="tspan68"
         style="font-variant:normal;font-weight:normal;font-size:11.0002px;font-family:Helvetica;writing-mode:lr-tb;fill:#262626;fill-opacity:1;fill-rule:nonzero;stroke:none"
         x="0"
         y="0">Pitch moment [N*m]</tspan></text>
    <path
       id="path68"
       d="M 465,1066.86 1156.88,910.02 1848.75,750.105 2540.63,566.25 3232.5,412.125"
       style="fill:none;stroke:#0072bd;stroke-width:15;stroke-linecap:butt;stroke-linejoin:round;stroke-miterlimit:10;stroke-dasharray:none;stroke-opacity:1"
       transform="matrix(0.13333333,0,0,-0.13333333,0,356)" />
    <path
       id="path69"
       d="m 495,1066.86 c 0,16.57 -13.434,30 -30,30 -16.566,0 -30,-13.43 -30,-30 0,-16.57 13.434,-30 30,-30 16.566,0 30,13.43 30,30 z"
       style="fill:none;stroke:#0072bd;stroke-width:15;stroke-linecap:butt;stroke-linejoin:miter;stroke-miterlimit:10;stroke-dasharray:none;stroke-opacity:1"
       transform="matrix(0.13333333,0,0,-0.13333333,0,356)" />
    <path
       id="path70"
       d="m 1186.88,910.023 c 0,16.567 -13.44,30 -30,30 -16.57,0 -30,-13.433 -30,-30 0,-16.566 13.43,-30 30,-30 16.56,0 30,13.434 30,30 z"
       style="fill:none;stroke:#0072bd;stroke-width:15;stroke-linecap:butt;stroke-linejoin:miter;stroke-miterlimit:10;stroke-dasharray:none;stroke-opacity:1"
       transform="matrix(0.13333333,0,0,-0.13333333,0,356)" />
    <path
       id="path71"
       d="m 1878.75,750.109 c 0,16.567 -13.43,30 -30,30 -16.57,0 -30,-13.433 -30,-30 0,-16.57 13.43,-30 30,-30 16.57,0 30,13.43 30,30 z"
       style="fill:none;stroke:#0072bd;stroke-width:15;stroke-linecap:butt;stroke-linejoin:miter;stroke-miterlimit:10;stroke-dasharray:none;stroke-opacity:1"
       transform="matrix(0.13333333,0,0,-0.13333333,0,356)" />
    <path
       id="path72"
       d="m 2570.63,566.246 c 0,16.567 -13.44,30 -30,30 -16.57,0 -30,-13.433 -30,-30 0,-16.566 13.43,-30 30,-30 16.56,0 30,13.434 30,30 z"
       style="fill:none;stroke:#0072bd;stroke-width:15;stroke-linecap:butt;stroke-linejoin:miter;stroke-miterlimit:10;stroke-dasharray:none;stroke-opacity:1"
       transform="matrix(0.13333333,0,0,-0.13333333,0,356)" />
    <path
       id="path73"
       d="m 3262.5,412.125 c 0,16.566 -13.43,30 -30,30 -16.57,0 -30,-13.434 -30,-30 0,-16.566 13.43,-30 30,-30 16.57,0 30,13.434 30,30 z"
       style="fill:none;stroke:#0072bd;stroke-width:15;stroke-linecap:butt;stroke-linejoin:miter;stroke-miterlimit:10;stroke-dasharray:none;stroke-opacity:1"
       transform="matrix(0.13333333,0,0,-0.13333333,0,356)" />
    <path
       id="path74"
       d="m 465,2052.07 691.88,-25.37 691.87,-33.59 691.88,-32.86 691.87,-58.01"
       style="fill:none;stroke:#d95319;stroke-width:15;stroke-linecap:butt;stroke-linejoin:round;stroke-miterlimit:10;stroke-dasharray:none;stroke-opacity:1"
       transform="matrix(0.13333333,0,0,-0.13333333,0,356)" />
    <path
       id="path75"
       d="m 442.5,2029.57 h 45 v 45 h -45 z"
       style="fill:none;stroke:#d95319;stroke-width:15;stroke-linecap:butt;stroke-linejoin:miter;stroke-miterlimit:10;stroke-dasharray:none;stroke-opacity:1"
       transform="matrix(0.13333333,0,0,-0.13333333,0,356)" />
    <path
       id="path76"
       d="m 1134.38,2004.2 h 45 v 45 h -45 z"
       style="fill:none;stroke:#d95319;stroke-width:15;stroke-linecap:butt;stroke-linejoin:miter;stroke-miterlimit:10;stroke-dasharray:none;stroke-opacity:1"
       transform="matrix(0.13333333,0,0,-0.13333333,0,356)" />
    <path
       id="path77"
       d="m 1826.25,1970.61 h 45 v 45 h -45 z"
       style="fill:none;stroke:#d95319;stroke-width:15;stroke-linecap:butt;stroke-linejoin:miter;stroke-miterlimit:10;stroke-dasharray:none;stroke-opacity:1"
       transform="matrix(0.13333333,0,0,-0.13333333,0,356)" />
    <path
       id="path78"
       d="m 2518.13,1937.74 h 45 v 45 h -45 z"
       style="fill:none;stroke:#d95319;stroke-width:15;stroke-linecap:butt;stroke-linejoin:miter;stroke-miterlimit:10;stroke-dasharray:none;stroke-opacity:1"
       transform="matrix(0.13333333,0,0,-0.13333333,0,356)" />
    <path
       id="path79"
       d="m 3210,1879.74 h 45 v 45 h -45 z"
       style="fill:none;stroke:#d95319;stroke-width:15;stroke-linecap:butt;stroke-linejoin:miter;stroke-miterlimit:10;stroke-dasharray:none;stroke-opacity:1"
       transform="matrix(0.13333333,0,0,-0.13333333,0,356)" />
    <path
       id="path80"
       d="m 465,2177.5 691.88,-10.85 691.87,-17.43 691.88,-14.01 691.87,-45.43"
       style="fill:none;stroke:#edb120;stroke-width:15;stroke-linecap:butt;stroke-linejoin:round;stroke-miterlimit:10;stroke-dasharray:none;stroke-opacity:1"
       transform="matrix(0.13333333,0,0,-0.13333333,0,356)" />
    <path
       id="path81"
       d="m 435,2177.5 30,-39.9 30,39.9 -30,39.9 z"
       style="fill:none;stroke:#edb120;stroke-width:15;stroke-linecap:butt;stroke-linejoin:miter;stroke-miterlimit:10;stroke-dasharray:none;stroke-opacity:1"
       transform="matrix(0.13333333,0,0,-0.13333333,0,356)" />
    <path
       id="path82"
       d="m 1126.88,2166.65 30,-39.9 30,39.9 -30,39.9 z"
       style="fill:none;stroke:#edb120;stroke-width:15;stroke-linecap:butt;stroke-linejoin:miter;stroke-miterlimit:10;stroke-dasharray:none;stroke-opacity:1"
       transform="matrix(0.13333333,0,0,-0.13333333,0,356)" />
    <path
       id="path83"
       d="m 1818.75,2149.23 30,-39.91 30,39.91 -30,39.9 z"
       style="fill:none;stroke:#edb120;stroke-width:15;stroke-linecap:butt;stroke-linejoin:miter;stroke-miterlimit:10;stroke-dasharray:none;stroke-opacity:1"
       transform="matrix(0.13333333,0,0,-0.13333333,0,356)" />
    <path
       id="path84"
       d="m 2510.63,2135.21 30,-39.9 30,39.9 -30,39.9 z"
       style="fill:none;stroke:#edb120;stroke-width:15;stroke-linecap:butt;stroke-linejoin:miter;stroke-miterlimit:10;stroke-dasharray:none;stroke-opacity:1"
       transform="matrix(0.13333333,0,0,-0.13333333,0,356)" />
    <path
       id="path85"
       d="m 3202.5,2089.77 30,-39.89 30,39.89 -30,39.91 z"
       style="fill:none;stroke:#edb120;stroke-width:15;stroke-linecap:butt;stroke-linejoin:miter;stroke-miterlimit:10;stroke-dasharray:none;stroke-opacity:1"
       transform="matrix(0.13333333,0,0,-0.13333333,0,356)" />
    <path
       id="path86"
       d="m 465,2298.82 691.88,7.97 691.87,-1.21 691.88,1.21 691.87,-32.63"
       style="fill:none;stroke:#7e2f8e;stroke-width:15;stroke-linecap:butt;stroke-linejoin:round;stroke-miterlimit:10;stroke-dasharray:none;stroke-opacity:1"
       transform="matrix(0.13333333,0,0,-0.13333333,0,356)" />
    <path
       id="path87"
       d="m 465,2328.82 v -60 m -30,30 h 60"
       style="fill:none;stroke:#7e2f8e;stroke-width:15;stroke-linecap:butt;stroke-linejoin:miter;stroke-miterlimit:10;stroke-dasharray:none;stroke-opacity:1"
       transform="matrix(0.13333333,0,0,-0.13333333,0,356)" />
    <path
       id="path88"
       d="m 1156.88,2336.79 v -60 m -30,30 h 60"
       style="fill:none;stroke:#7e2f8e;stroke-width:15;stroke-linecap:butt;stroke-linejoin:miter;stroke-miterlimit:10;stroke-dasharray:none;stroke-opacity:1"
       transform="matrix(0.13333333,0,0,-0.13333333,0,356)" />
    <path
       id="path89"
       d="m 1848.75,2335.58 v -60 m -30,30 h 60"
       style="fill:none;stroke:#7e2f8e;stroke-width:15;stroke-linecap:butt;stroke-linejoin:miter;stroke-miterlimit:10;stroke-dasharray:none;stroke-opacity:1"
       transform="matrix(0.13333333,0,0,-0.13333333,0,356)" />
    <path
       id="path90"
       d="m 2540.63,2336.79 v -60 m -30,30 h 60"
       style="fill:none;stroke:#7e2f8e;stroke-width:15;stroke-linecap:butt;stroke-linejoin:miter;stroke-miterlimit:10;stroke-dasharray:none;stroke-opacity:1"
       transform="matrix(0.13333333,0,0,-0.13333333,0,356)" />
    <path
       id="path91"
       d="m 3232.5,2304.17 v -60 m -30,30 h 60"
       style="fill:none;stroke:#7e2f8e;stroke-width:15;stroke-linecap:butt;stroke-linejoin:miter;stroke-miterlimit:10;stroke-dasharray:none;stroke-opacity:1"
       transform="matrix(0.13333333,0,0,-0.13333333,0,356)" />
    <path
       id="path92"
       d="m 810.938,1020.41 1037.812,-155 691.88,-115.98"
       style="fill:none;stroke:#77ac30;stroke-width:15;stroke-linecap:butt;stroke-linejoin:round;stroke-miterlimit:10;stroke-dasharray:none;stroke-opacity:1"
       transform="matrix(0.13333333,0,0,-0.13333333,0,356)" />
    <path
       id="path93"
       d="m 789.727,1041.62 42.421,-42.417 m -42.421,0 42.421,42.417"
       style="fill:none;stroke:#77ac30;stroke-width:15;stroke-linecap:butt;stroke-linejoin:miter;stroke-miterlimit:10;stroke-dasharray:none;stroke-opacity:1"
       transform="matrix(0.13333333,0,0,-0.13333333,0,356)" />
    <path
       id="path94"
       d="m 1827.54,886.621 42.42,-42.418 m -42.42,0 42.42,42.418"
       style="fill:none;stroke:#77ac30;stroke-width:15;stroke-linecap:butt;stroke-linejoin:miter;stroke-miterlimit:10;stroke-dasharray:none;stroke-opacity:1"
       transform="matrix(0.13333333,0,0,-0.13333333,0,356)" />
    <path
       id="path95"
       d="m 2519.41,770.645 42.43,-42.422 m -42.43,0 42.43,42.422"
       style="fill:none;stroke:#77ac30;stroke-width:15;stroke-linecap:butt;stroke-linejoin:miter;stroke-miterlimit:10;stroke-dasharray:none;stroke-opacity:1"
       transform="matrix(0.13333333,0,0,-0.13333333,0,356)" />
    <path
       id="path96"
       d="m 1785,990 h 1365 v 780 H 1785 Z"
       style="fill:#ffffff;fill-opacity:1;fill-rule:nonzero;stroke:none"
       transform="matrix(0.13333333,0,0,-0.13333333,0,356)" />
    <text
       id="text96"
       xml:space="preserve"
       transform="matrix(1.3333333,0,0,1.3333333,285,135)"><tspan
         id="tspan96"
         style="font-variant:normal;font-weight:normal;font-size:9px;font-family:Helvetica;writing-mode:lr-tb;fill:#000000;fill-opacity:1;fill-rule:nonzero;stroke:none"
         x="0"
         y="0">About CG</tspan></text>
    <path
       id="path97"
       d="m 1815,1695 h 300"
       style="fill:none;stroke:#0072bd;stroke-width:15;stroke-linecap:butt;stroke-linejoin:round;stroke-miterlimit:10;stroke-dasharray:none;stroke-opacity:1"
       transform="matrix(0.13333333,0,0,-0.13333333,0,356)" />
    <path
       id="path98"
       d="m 1995,1695 c 0,16.57 -13.43,30 -30,30 -16.57,0 -30,-13.43 -30,-30 0,-16.57 13.43,-30 30,-30 16.57,0 30,13.43 30,30 z"
       style="fill:none;stroke:#0072bd;stroke-width:15;stroke-linecap:butt;stroke-linejoin:miter;stroke-miterlimit:10;stroke-dasharray:none;stroke-opacity:1"
       transform="matrix(0.13333333,0,0,-0.13333333,0,356)" />
    <text
       id="text98"
       xml:space="preserve"
       transform="matrix(1.3333333,0,0,1.3333333,285,152)"><tspan
         id="tspan98"
         style="font-variant:normal;font-weight:normal;font-size:9px;font-family:Helvetica;writing-mode:lr-tb;fill:#000000;fill-opacity:1;fill-rule:nonzero;stroke:none"
         x="0"
         y="0">X</tspan><tspan
         id="tspan99"
         style="font-variant:normal;font-weight:normal;font-size:7.2px;font-family:Helvetica;writing-mode:lr-tb;fill:#000000;fill-opacity:1;fill-rule:nonzero;stroke:none"
         x="6.75"
         y="4.5">CG</tspan><tspan
         id="tspan100"
         style="font-variant:normal;font-weight:normal;font-size:9px;font-family:Helvetica;writing-mode:lr-tb;fill:#000000;fill-opacity:1;fill-rule:nonzero;stroke:none"
         x="18"
         y="0">+4cm</tspan></text>
    <path
       id="path100"
       d="m 1815,1548.75 h 300"
       style="fill:none;stroke:#d95319;stroke-width:15;stroke-linecap:butt;stroke-linejoin:round;stroke-miterlimit:10;stroke-dasharray:none;stroke-opacity:1"
       transform="matrix(0.13333333,0,0,-0.13333333,0,356)" />
    <path
       id="path101"
       d="m 1942.5,1526.25 h 45 v 45 h -45 z"
       style="fill:none;stroke:#d95319;stroke-width:15;stroke-linecap:butt;stroke-linejoin:miter;stroke-miterlimit:10;stroke-dasharray:none;stroke-opacity:1"
       transform="matrix(0.13333333,0,0,-0.13333333,0,356)" />
    <text
       id="text101"
       xml:space="preserve"
       transform="matrix(1.3333333,0,0,1.3333333,285,174)"><tspan
         id="tspan101"
         style="font-variant:normal;font-weight:normal;font-size:9px;font-family:Helvetica;writing-mode:lr-tb;fill:#000000;fill-opacity:1;fill-rule:nonzero;stroke:none"
         x="0"
         y="0">X</tspan><tspan
         id="tspan102"
         style="font-variant:normal;font-weight:normal;font-size:7.2px;font-family:Helvetica;writing-mode:lr-tb;fill:#000000;fill-opacity:1;fill-rule:nonzero;stroke:none"
         x="6.75"
         y="4.5">CG</tspan><tspan
         id="tspan103"
         style="font-variant:normal;font-weight:normal;font-size:9px;font-family:Helvetica;writing-mode:lr-tb;fill:#000000;fill-opacity:1;fill-rule:nonzero;stroke:none"
         x="18"
         y="0">+4.5cm</tspan></text>
    <path
       id="path103"
       d="m 1815,1380 h 300"
       style="fill:none;stroke:#edb120;stroke-width:15;stroke-linecap:butt;stroke-linejoin:round;stroke-miterlimit:10;stroke-dasharray:none;stroke-opacity:1"
       transform="matrix(0.13333333,0,0,-0.13333333,0,356)" />
    <path
       id="path104"
       d="m 1935,1380 30,-39.9 30,39.9 -30,39.9 z"
       style="fill:none;stroke:#edb120;stroke-width:15;stroke-linecap:butt;stroke-linejoin:miter;stroke-miterlimit:10;stroke-dasharray:none;stroke-opacity:1"
       transform="matrix(0.13333333,0,0,-0.13333333,0,356)" />
    <text
       id="text104"
       xml:space="preserve"
       transform="matrix(1.3333333,0,0,1.3333333,285,197)"><tspan
         id="tspan104"
         style="font-variant:normal;font-weight:normal;font-size:9px;font-family:Helvetica;writing-mode:lr-tb;fill:#000000;fill-opacity:1;fill-rule:nonzero;stroke:none"
         x="0"
         y="0">X</tspan><tspan
         id="tspan105"
         style="font-variant:normal;font-weight:normal;font-size:7.2px;font-family:Helvetica;writing-mode:lr-tb;fill:#000000;fill-opacity:1;fill-rule:nonzero;stroke:none"
         x="6.75"
         y="4.5">CG</tspan><tspan
         id="tspan106"
         style="font-variant:normal;font-weight:normal;font-size:9px;font-family:Helvetica;writing-mode:lr-tb;fill:#000000;fill-opacity:1;fill-rule:nonzero;stroke:none"
         x="18"
         y="0">+5cm</tspan></text>
    <path
       id="path106"
       d="m 1815,1211.25 h 300"
       style="fill:none;stroke:#7e2f8e;stroke-width:15;stroke-linecap:butt;stroke-linejoin:round;stroke-miterlimit:10;stroke-dasharray:none;stroke-opacity:1"
       transform="matrix(0.13333333,0,0,-0.13333333,0,356)" />
    <path
       id="path107"
       d="m 1965,1241.25 v -60 m -30,30 h 60"
       style="fill:none;stroke:#7e2f8e;stroke-width:15;stroke-linecap:butt;stroke-linejoin:miter;stroke-miterlimit:10;stroke-dasharray:none;stroke-opacity:1"
       transform="matrix(0.13333333,0,0,-0.13333333,0,356)" />
    <text
       id="text107"
       xml:space="preserve"
       transform="matrix(1.3333333,0,0,1.3333333,285,219)"><tspan
         id="tspan107"
         style="font-variant:normal;font-weight:normal;font-size:9px;font-family:Helvetica;writing-mode:lr-tb;fill:#000000;fill-opacity:1;fill-rule:nonzero;stroke:none"
         x="0"
         y="0">About CG/With propeller</tspan></text>
    <path
       id="path108"
       d="m 1815,1065 h 300"
       style="fill:none;stroke:#77ac30;stroke-width:15;stroke-linecap:butt;stroke-linejoin:round;stroke-miterlimit:10;stroke-dasharray:none;stroke-opacity:1"
       transform="matrix(0.13333333,0,0,-0.13333333,0,356)" />
    <path
       id="path109"
       d="m 1943.79,1086.21 42.42,-42.42 m -42.42,0 42.42,42.42"
       style="fill:none;stroke:#77ac30;stroke-width:15;stroke-linecap:butt;stroke-linejoin:miter;stroke-miterlimit:10;stroke-dasharray:none;stroke-opacity:1"
       transform="matrix(0.13333333,0,0,-0.13333333,0,356)" />
    <path
       id="path110"
       d="m 1785,990 h 1365 v 780 H 1785 Z"
       style="fill:none;stroke:#262626;stroke-width:5.0025;stroke-linecap:butt;stroke-linejoin:miter;stroke-miterlimit:10;stroke-dasharray:none;stroke-opacity:1"
       transform="matrix(0.13333333,0,0,-0.13333333,0,356)" />
  </g>
</svg>
