<?xml version="1.0" encoding="UTF-8" standalone="no"?>
<!-- Created with Inkscape (http://www.inkscape.org/) -->

<svg
   version="1.1"
   id="svg1"
   width="509.33334"
   height="388"
   viewBox="0 0 509.33334 388"
   sodipodi:docname="yawmom4.eps"
   xmlns:inkscape="http://www.inkscape.org/namespaces/inkscape"
   xmlns:sodipodi="http://sodipodi.sourceforge.net/DTD/sodipodi-0.dtd"
   xmlns="http://www.w3.org/2000/svg"
   xmlns:svg="http://www.w3.org/2000/svg">
  <defs
     id="defs1" />
  <sodipodi:namedview
     id="namedview1"
     pagecolor="#ffffff"
     bordercolor="#000000"
     borderopacity="0.25"
     inkscape:showpageshadow="2"
     inkscape:pageopacity="0.0"
     inkscape:pagecheckerboard="0"
     inkscape:deskcolor="#d1d1d1">
    <inkscape:page
       x="0"
       y="0"
       inkscape:label="1"
       id="page1"
       width="509.33334"
       height="388"
       margin="0"
       bleed="0" />
  </sodipodi:namedview>
  <g
     id="g1"
     inkscape:groupmode="layer"
     inkscape:label="1">
    <path
       id="path1"
       d="M 0,7.5 H 3817.5 V 2910 H 0 Z"
       style="fill:#ffffff;fill-opacity:1;fill-rule:nonzero;stroke:none"
       transform="matrix(0.13333333,0,0,-0.13333333,0,388)" />
    <path
       id="path2"
       d="M 0,7.5 H 3817.5 V 2910 H 0 Z"
       style="fill:#ffffff;fill-opacity:1;fill-rule:nonzero;stroke:none"
       transform="matrix(0.13333333,0,0,-0.13333333,0,388)" />
    <path
       id="path3"
       d="M 495,330 H 3457.5 V 2692.5 H 495 Z"
       style="fill:#ffffff;fill-opacity:1;fill-rule:nonzero;stroke:none"
       transform="matrix(0.13333333,0,0,-0.13333333,0,388)" />
    <path
       id="path4"
       d="M 495,330 V 2692.5"
       style="fill:none;stroke:#dfdfdf;stroke-width:5.0025;stroke-linecap:butt;stroke-linejoin:round;stroke-miterlimit:10;stroke-dasharray:none;stroke-opacity:1"
       transform="matrix(0.13333333,0,0,-0.13333333,0,388)" />
    <path
       id="path5"
       d="M 865.309,330 V 2692.5"
       style="fill:none;stroke:#dfdfdf;stroke-width:5.0025;stroke-linecap:butt;stroke-linejoin:round;stroke-miterlimit:10;stroke-dasharray:none;stroke-opacity:1"
       transform="matrix(0.13333333,0,0,-0.13333333,0,388)" />
    <path
       id="path6"
       d="M 1235.63,330 V 2692.5"
       style="fill:none;stroke:#dfdfdf;stroke-width:5.0025;stroke-linecap:butt;stroke-linejoin:round;stroke-miterlimit:10;stroke-dasharray:none;stroke-opacity:1"
       transform="matrix(0.13333333,0,0,-0.13333333,0,388)" />
    <path
       id="path7"
       d="M 1605.94,330 V 2692.5"
       style="fill:none;stroke:#dfdfdf;stroke-width:5.0025;stroke-linecap:butt;stroke-linejoin:round;stroke-miterlimit:10;stroke-dasharray:none;stroke-opacity:1"
       transform="matrix(0.13333333,0,0,-0.13333333,0,388)" />
    <path
       id="path8"
       d="M 1976.25,330 V 2692.5"
       style="fill:none;stroke:#dfdfdf;stroke-width:5.0025;stroke-linecap:butt;stroke-linejoin:round;stroke-miterlimit:10;stroke-dasharray:none;stroke-opacity:1"
       transform="matrix(0.13333333,0,0,-0.13333333,0,388)" />
    <path
       id="path9"
       d="M 2346.56,330 V 2692.5"
       style="fill:none;stroke:#dfdfdf;stroke-width:5.0025;stroke-linecap:butt;stroke-linejoin:round;stroke-miterlimit:10;stroke-dasharray:none;stroke-opacity:1"
       transform="matrix(0.13333333,0,0,-0.13333333,0,388)" />
    <path
       id="path10"
       d="M 2716.88,330 V 2692.5"
       style="fill:none;stroke:#dfdfdf;stroke-width:5.0025;stroke-linecap:butt;stroke-linejoin:round;stroke-miterlimit:10;stroke-dasharray:none;stroke-opacity:1"
       transform="matrix(0.13333333,0,0,-0.13333333,0,388)" />
    <path
       id="path11"
       d="M 3087.19,330 V 2692.5"
       style="fill:none;stroke:#dfdfdf;stroke-width:5.0025;stroke-linecap:butt;stroke-linejoin:round;stroke-miterlimit:10;stroke-dasharray:none;stroke-opacity:1"
       transform="matrix(0.13333333,0,0,-0.13333333,0,388)" />
    <path
       id="path12"
       d="M 3457.5,330 V 2692.5"
       style="fill:none;stroke:#dfdfdf;stroke-width:5.0025;stroke-linecap:butt;stroke-linejoin:round;stroke-miterlimit:10;stroke-dasharray:none;stroke-opacity:1"
       transform="matrix(0.13333333,0,0,-0.13333333,0,388)" />
    <path
       id="path13"
       d="M 3457.5,330 H 495"
       style="fill:none;stroke:#dfdfdf;stroke-width:5.0025;stroke-linecap:butt;stroke-linejoin:round;stroke-miterlimit:10;stroke-dasharray:none;stroke-opacity:1"
       transform="matrix(0.13333333,0,0,-0.13333333,0,388)" />
    <path
       id="path14"
       d="M 3457.5,566.25 H 495"
       style="fill:none;stroke:#dfdfdf;stroke-width:5.0025;stroke-linecap:butt;stroke-linejoin:round;stroke-miterlimit:10;stroke-dasharray:none;stroke-opacity:1"
       transform="matrix(0.13333333,0,0,-0.13333333,0,388)" />
    <path
       id="path15"
       d="M 3457.5,802.5 H 495"
       style="fill:none;stroke:#dfdfdf;stroke-width:5.0025;stroke-linecap:butt;stroke-linejoin:round;stroke-miterlimit:10;stroke-dasharray:none;stroke-opacity:1"
       transform="matrix(0.13333333,0,0,-0.13333333,0,388)" />
    <path
       id="path16"
       d="M 3457.5,1038.75 H 495"
       style="fill:none;stroke:#dfdfdf;stroke-width:5.0025;stroke-linecap:butt;stroke-linejoin:round;stroke-miterlimit:10;stroke-dasharray:none;stroke-opacity:1"
       transform="matrix(0.13333333,0,0,-0.13333333,0,388)" />
    <path
       id="path17"
       d="M 3457.5,1275 H 495"
       style="fill:none;stroke:#dfdfdf;stroke-width:5.0025;stroke-linecap:butt;stroke-linejoin:round;stroke-miterlimit:10;stroke-dasharray:none;stroke-opacity:1"
       transform="matrix(0.13333333,0,0,-0.13333333,0,388)" />
    <path
       id="path18"
       d="M 3457.5,1511.25 H 495"
       style="fill:none;stroke:#dfdfdf;stroke-width:5.0025;stroke-linecap:butt;stroke-linejoin:round;stroke-miterlimit:10;stroke-dasharray:none;stroke-opacity:1"
       transform="matrix(0.13333333,0,0,-0.13333333,0,388)" />
    <path
       id="path19"
       d="M 3457.5,1747.5 H 495"
       style="fill:none;stroke:#dfdfdf;stroke-width:5.0025;stroke-linecap:butt;stroke-linejoin:round;stroke-miterlimit:10;stroke-dasharray:none;stroke-opacity:1"
       transform="matrix(0.13333333,0,0,-0.13333333,0,388)" />
    <path
       id="path20"
       d="M 3457.5,1983.75 H 495"
       style="fill:none;stroke:#dfdfdf;stroke-width:5.0025;stroke-linecap:butt;stroke-linejoin:round;stroke-miterlimit:10;stroke-dasharray:none;stroke-opacity:1"
       transform="matrix(0.13333333,0,0,-0.13333333,0,388)" />
    <path
       id="path21"
       d="M 3457.5,2220 H 495"
       style="fill:none;stroke:#dfdfdf;stroke-width:5.0025;stroke-linecap:butt;stroke-linejoin:round;stroke-miterlimit:10;stroke-dasharray:none;stroke-opacity:1"
       transform="matrix(0.13333333,0,0,-0.13333333,0,388)" />
    <path
       id="path22"
       d="M 3457.5,2456.25 H 495"
       style="fill:none;stroke:#dfdfdf;stroke-width:5.0025;stroke-linecap:butt;stroke-linejoin:round;stroke-miterlimit:10;stroke-dasharray:none;stroke-opacity:1"
       transform="matrix(0.13333333,0,0,-0.13333333,0,388)" />
    <path
       id="path23"
       d="M 3457.5,2692.5 H 495"
       style="fill:none;stroke:#dfdfdf;stroke-width:5.0025;stroke-linecap:butt;stroke-linejoin:round;stroke-miterlimit:10;stroke-dasharray:none;stroke-opacity:1"
       transform="matrix(0.13333333,0,0,-0.13333333,0,388)" />
    <path
       id="path24"
       d="M 495,330 H 3457.5"
       style="fill:none;stroke:#262626;stroke-width:5.0025;stroke-linecap:square;stroke-linejoin:round;stroke-miterlimit:10;stroke-dasharray:none;stroke-opacity:1"
       transform="matrix(0.13333333,0,0,-0.13333333,0,388)" />
    <path
       id="path25"
       d="M 495,2692.5 H 3457.5"
       style="fill:none;stroke:#262626;stroke-width:5.0025;stroke-linecap:square;stroke-linejoin:round;stroke-miterlimit:10;stroke-dasharray:none;stroke-opacity:1"
       transform="matrix(0.13333333,0,0,-0.13333333,0,388)" />
    <path
       id="path26"
       d="M 495,330 V 2692.5"
       style="fill:none;stroke:#262626;stroke-width:5.0025;stroke-linecap:square;stroke-linejoin:round;stroke-miterlimit:10;stroke-dasharray:none;stroke-opacity:1"
       transform="matrix(0.13333333,0,0,-0.13333333,0,388)" />
    <path
       id="path27"
       d="M 3457.5,330 V 2692.5"
       style="fill:none;stroke:#262626;stroke-width:5.0025;stroke-linecap:square;stroke-linejoin:round;stroke-miterlimit:10;stroke-dasharray:none;stroke-opacity:1"
       transform="matrix(0.13333333,0,0,-0.13333333,0,388)" />
    <path
       id="path28"
       d="M 495,1511.25 H 3457.5"
       style="fill:none;stroke:#262626;stroke-width:5.0025;stroke-linecap:square;stroke-linejoin:round;stroke-miterlimit:10;stroke-dasharray:none;stroke-opacity:1"
       transform="matrix(0.13333333,0,0,-0.13333333,0,388)" />
    <path
       id="path29"
       d="m 495,1511.25 v 29.65"
       style="fill:none;stroke:#262626;stroke-width:5.0025;stroke-linecap:square;stroke-linejoin:round;stroke-miterlimit:10;stroke-dasharray:none;stroke-opacity:1"
       transform="matrix(0.13333333,0,0,-0.13333333,0,388)" />
    <path
       id="path30"
       d="m 865.309,1511.25 v 29.65"
       style="fill:none;stroke:#262626;stroke-width:5.0025;stroke-linecap:square;stroke-linejoin:round;stroke-miterlimit:10;stroke-dasharray:none;stroke-opacity:1"
       transform="matrix(0.13333333,0,0,-0.13333333,0,388)" />
    <path
       id="path31"
       d="m 1235.63,1511.25 v 29.65"
       style="fill:none;stroke:#262626;stroke-width:5.0025;stroke-linecap:square;stroke-linejoin:round;stroke-miterlimit:10;stroke-dasharray:none;stroke-opacity:1"
       transform="matrix(0.13333333,0,0,-0.13333333,0,388)" />
    <path
       id="path32"
       d="m 1605.94,1511.25 v 29.65"
       style="fill:none;stroke:#262626;stroke-width:5.0025;stroke-linecap:square;stroke-linejoin:round;stroke-miterlimit:10;stroke-dasharray:none;stroke-opacity:1"
       transform="matrix(0.13333333,0,0,-0.13333333,0,388)" />
    <path
       id="path33"
       d="m 1976.25,1511.25 v 29.65"
       style="fill:none;stroke:#262626;stroke-width:5.0025;stroke-linecap:square;stroke-linejoin:round;stroke-miterlimit:10;stroke-dasharray:none;stroke-opacity:1"
       transform="matrix(0.13333333,0,0,-0.13333333,0,388)" />
    <path
       id="path34"
       d="m 2346.56,1511.25 v 29.65"
       style="fill:none;stroke:#262626;stroke-width:5.0025;stroke-linecap:square;stroke-linejoin:round;stroke-miterlimit:10;stroke-dasharray:none;stroke-opacity:1"
       transform="matrix(0.13333333,0,0,-0.13333333,0,388)" />
    <path
       id="path35"
       d="m 2716.88,1511.25 v 29.65"
       style="fill:none;stroke:#262626;stroke-width:5.0025;stroke-linecap:square;stroke-linejoin:round;stroke-miterlimit:10;stroke-dasharray:none;stroke-opacity:1"
       transform="matrix(0.13333333,0,0,-0.13333333,0,388)" />
    <path
       id="path36"
       d="m 3087.19,1511.25 v 29.65"
       style="fill:none;stroke:#262626;stroke-width:5.0025;stroke-linecap:square;stroke-linejoin:round;stroke-miterlimit:10;stroke-dasharray:none;stroke-opacity:1"
       transform="matrix(0.13333333,0,0,-0.13333333,0,388)" />
    <path
       id="path37"
       d="m 3457.5,1511.25 v 29.65"
       style="fill:none;stroke:#262626;stroke-width:5.0025;stroke-linecap:square;stroke-linejoin:round;stroke-miterlimit:10;stroke-dasharray:none;stroke-opacity:1"
       transform="matrix(0.13333333,0,0,-0.13333333,0,388)" />
    <text
       id="text37"
       xml:space="preserve"
       transform="matrix(1.3333333,0,0,1.3333333,103.87507,205.83333)"><tspan
         id="tspan37"
         style="font-variant:normal;font-weight:normal;font-size:9.99975px;font-family:Arial;writing-mode:lr-tb;fill:#262626;fill-opacity:1;fill-rule:nonzero;stroke:none"
         x="0"
         dx="0 0 0 0 23.929502 0 24.009399 0 0 0 58.332642 0 0 27.259119 27.339417"
         y="0">-1.5-1-0.50.511.5</tspan><tspan
         id="tspan38"
         style="font-variant:normal;font-weight:normal;font-size:11.0002px;font-family:Arial;writing-mode:lr-tb;fill:#262626;fill-opacity:1;fill-rule:nonzero;stroke:none"
         x="159.84399"
         y="-18.625">Sideslip angle</tspan></text>
    <path
       id="path38"
       d="m 3100.55,1530.7 c -0.24,0 -0.47,0.12 -0.67,0.35 -0.15,0.24 -0.27,0.47 -0.27,0.71 l 17.34,69.61 c 1.02,3.75 2.46,7.38 4.34,10.9 1.87,3.51 4.26,6.75 7.15,9.76 2.89,3.05 6.05,5.39 9.49,7.19 3.44,1.76 7.11,2.62 11.02,2.62 2.73,0 5.23,-0.63 7.5,-1.88 2.26,-1.25 4.06,-2.97 5.31,-5.16 1.33,-2.18 1.95,-4.68 1.95,-7.5 0,-2.65 -0.51,-5.19 -1.52,-7.61 -1.02,-2.42 -2.42,-4.69 -4.26,-6.8 -1.84,-2.11 -3.83,-3.83 -5.94,-5.16 1.25,-0.78 2.35,-1.75 3.28,-2.96 0.94,-1.22 1.72,-2.47 2.31,-3.75 0.55,-1.29 1.01,-2.78 1.37,-4.38 0.39,-1.56 0.54,-3.05 0.54,-4.37 0,-3.91 -0.82,-7.74 -2.46,-11.41 -1.64,-3.71 -3.9,-7.11 -6.76,-10.16 -2.85,-3.04 -6.09,-5.47 -9.76,-7.26 -3.67,-1.8 -7.42,-2.7 -11.25,-2.7 -4.22,0 -8.01,1.17 -11.37,3.52 -3.36,2.34 -5.7,5.47 -7.03,9.37 l -8.09,-32.22 c 0,-0.47 -0.27,-0.71 -0.82,-0.71 z m 28.94,23.21 c 3.36,0 6.41,1.09 9.14,3.28 2.74,2.18 4.96,4.96 6.72,8.32 1.8,3.36 3.13,6.91 4.06,10.66 0.94,3.75 1.41,7.19 1.41,10.31 0,3.75 -1.09,6.76 -3.28,9.03 -2.58,-1.02 -5.08,-1.53 -7.5,-1.53 -5.94,0 -8.91,1.02 -8.91,3.05 0,2.66 3.4,3.99 10.2,3.99 2.42,0 4.61,-0.4 6.56,-1.18 1.64,1.25 3.13,3.09 4.45,5.51 1.33,2.42 2.35,4.92 2.97,7.54 0.71,2.66 1.02,5.12 1.02,7.46 0,2.42 -0.67,4.45 -1.95,6.1 -1.25,1.64 -3.17,2.46 -5.67,2.46 -4.61,0 -8.87,-1.41 -12.77,-4.22 -3.91,-2.82 -7.23,-6.37 -9.96,-10.67 -2.74,-4.29 -4.69,-8.75 -5.86,-13.36 l -6.21,-24.84 c -0.39,-1.72 -0.63,-3.63 -0.71,-5.74 0,-4.69 1.53,-8.56 4.57,-11.6 3.05,-3.05 6.96,-4.57 11.72,-4.57 z m 5.04,43.47 c 1.1,-0.31 2.97,-0.47 5.63,-0.47 1.25,0 2.54,0.24 3.86,0.71 -0.07,0.08 -0.23,0.11 -0.47,0.11 -0.78,0.24 -1.64,0.36 -2.57,0.36 -3.44,0 -5.59,-0.24 -6.45,-0.71"
       style="fill:#262626;fill-opacity:1;fill-rule:nonzero;stroke:none"
       transform="matrix(0.13333333,0,0,-0.13333333,0,388)" />
    <text
       id="text38"
       xml:space="preserve"
       transform="matrix(1.3333333,0,0,1.3333333,426.07733,181)"><tspan
         id="tspan39"
         style="font-variant:normal;font-weight:normal;font-size:11.0002px;font-family:Arial;writing-mode:lr-tb;fill:#262626;fill-opacity:1;fill-rule:nonzero;stroke:none"
         x="0"
         y="0">[</tspan><tspan
         id="tspan40"
         style="font-variant:normal;font-weight:normal;font-size:11.0002px;font-family:'Courier New';writing-mode:lr-tb;fill:#262626;fill-opacity:1;fill-rule:nonzero;stroke:none"
         x="3.69414"
         y="0">°</tspan><tspan
         id="tspan41"
         style="font-variant:normal;font-weight:normal;font-size:11.0002px;font-family:Arial;writing-mode:lr-tb;fill:#262626;fill-opacity:1;fill-rule:nonzero;stroke:none"
         x="8.1941404"
         y="0">]</tspan></text>
    <path
       id="path41"
       d="M 1976.25,330 V 2692.5"
       style="fill:none;stroke:#262626;stroke-width:5.0025;stroke-linecap:square;stroke-linejoin:round;stroke-miterlimit:10;stroke-dasharray:none;stroke-opacity:1"
       transform="matrix(0.13333333,0,0,-0.13333333,0,388)" />
    <path
       id="path42"
       d="m 1976.25,330 h 29.65"
       style="fill:none;stroke:#262626;stroke-width:5.0025;stroke-linecap:square;stroke-linejoin:round;stroke-miterlimit:10;stroke-dasharray:none;stroke-opacity:1"
       transform="matrix(0.13333333,0,0,-0.13333333,0,388)" />
    <path
       id="path43"
       d="m 1976.25,566.25 h 29.65"
       style="fill:none;stroke:#262626;stroke-width:5.0025;stroke-linecap:square;stroke-linejoin:round;stroke-miterlimit:10;stroke-dasharray:none;stroke-opacity:1"
       transform="matrix(0.13333333,0,0,-0.13333333,0,388)" />
    <path
       id="path44"
       d="m 1976.25,802.5 h 29.65"
       style="fill:none;stroke:#262626;stroke-width:5.0025;stroke-linecap:square;stroke-linejoin:round;stroke-miterlimit:10;stroke-dasharray:none;stroke-opacity:1"
       transform="matrix(0.13333333,0,0,-0.13333333,0,388)" />
    <path
       id="path45"
       d="m 1976.25,1038.75 h 29.65"
       style="fill:none;stroke:#262626;stroke-width:5.0025;stroke-linecap:square;stroke-linejoin:round;stroke-miterlimit:10;stroke-dasharray:none;stroke-opacity:1"
       transform="matrix(0.13333333,0,0,-0.13333333,0,388)" />
    <path
       id="path46"
       d="m 1976.25,1275 h 29.65"
       style="fill:none;stroke:#262626;stroke-width:5.0025;stroke-linecap:square;stroke-linejoin:round;stroke-miterlimit:10;stroke-dasharray:none;stroke-opacity:1"
       transform="matrix(0.13333333,0,0,-0.13333333,0,388)" />
    <path
       id="path47"
       d="m 1976.25,1511.25 h 29.65"
       style="fill:none;stroke:#262626;stroke-width:5.0025;stroke-linecap:square;stroke-linejoin:round;stroke-miterlimit:10;stroke-dasharray:none;stroke-opacity:1"
       transform="matrix(0.13333333,0,0,-0.13333333,0,388)" />
    <path
       id="path48"
       d="m 1976.25,1747.5 h 29.65"
       style="fill:none;stroke:#262626;stroke-width:5.0025;stroke-linecap:square;stroke-linejoin:round;stroke-miterlimit:10;stroke-dasharray:none;stroke-opacity:1"
       transform="matrix(0.13333333,0,0,-0.13333333,0,388)" />
    <path
       id="path49"
       d="m 1976.25,1983.75 h 29.65"
       style="fill:none;stroke:#262626;stroke-width:5.0025;stroke-linecap:square;stroke-linejoin:round;stroke-miterlimit:10;stroke-dasharray:none;stroke-opacity:1"
       transform="matrix(0.13333333,0,0,-0.13333333,0,388)" />
    <path
       id="path50"
       d="m 1976.25,2220 h 29.65"
       style="fill:none;stroke:#262626;stroke-width:5.0025;stroke-linecap:square;stroke-linejoin:round;stroke-miterlimit:10;stroke-dasharray:none;stroke-opacity:1"
       transform="matrix(0.13333333,0,0,-0.13333333,0,388)" />
    <path
       id="path51"
       d="m 1976.25,2456.25 h 29.65"
       style="fill:none;stroke:#262626;stroke-width:5.0025;stroke-linecap:square;stroke-linejoin:round;stroke-miterlimit:10;stroke-dasharray:none;stroke-opacity:1"
       transform="matrix(0.13333333,0,0,-0.13333333,0,388)" />
    <path
       id="path52"
       d="m 1976.25,2692.5 h 29.65"
       style="fill:none;stroke:#262626;stroke-width:5.0025;stroke-linecap:square;stroke-linejoin:round;stroke-miterlimit:10;stroke-dasharray:none;stroke-opacity:1"
       transform="matrix(0.13333333,0,0,-0.13333333,0,388)" />
    <text
       id="text52"
       xml:space="preserve"
       transform="matrix(1.3333333,0,0,1.3333333,227.16667,318)"><tspan
         id="tspan52"
         style="font-variant:normal;font-weight:normal;font-size:9.99975px;font-family:Arial;writing-mode:lr-tb;fill:#262626;fill-opacity:1;fill-rule:nonzero;stroke:none"
         x="0"
         y="0">-0.04</tspan><tspan
         id="tspan53"
         style="font-variant:normal;font-weight:normal;font-size:9.99975px;font-family:Arial;writing-mode:lr-tb;fill:#262626;fill-opacity:1;fill-rule:nonzero;stroke:none"
         x="0"
         y="-23.625">-0.03</tspan><tspan
         id="tspan54"
         style="font-variant:normal;font-weight:normal;font-size:9.99975px;font-family:Arial;writing-mode:lr-tb;fill:#262626;fill-opacity:1;fill-rule:nonzero;stroke:none"
         x="0"
         y="-47.25">-0.02</tspan><tspan
         id="tspan55"
         style="font-variant:normal;font-weight:normal;font-size:9.99975px;font-family:Arial;writing-mode:lr-tb;fill:#262626;fill-opacity:1;fill-rule:nonzero;stroke:none"
         x="0"
         y="-70.875">-0.01</tspan><tspan
         id="tspan56"
         style="font-variant:normal;font-weight:normal;font-size:9.99975px;font-family:Arial;writing-mode:lr-tb;fill:#262626;fill-opacity:1;fill-rule:nonzero;stroke:none"
         x="3.75"
         y="-118.125">0.01</tspan><tspan
         id="tspan57"
         style="font-variant:normal;font-weight:normal;font-size:9.99975px;font-family:Arial;writing-mode:lr-tb;fill:#262626;fill-opacity:1;fill-rule:nonzero;stroke:none"
         x="3.75"
         y="-141.75">0.02</tspan><tspan
         id="tspan58"
         style="font-variant:normal;font-weight:normal;font-size:9.99975px;font-family:Arial;writing-mode:lr-tb;fill:#262626;fill-opacity:1;fill-rule:nonzero;stroke:none"
         x="3.75"
         y="-165.375">0.03</tspan><tspan
         id="tspan59"
         style="font-variant:normal;font-weight:normal;font-size:9.99975px;font-family:Arial;writing-mode:lr-tb;fill:#262626;fill-opacity:1;fill-rule:nonzero;stroke:none"
         x="3.75"
         y="-189">0.04</tspan><tspan
         id="tspan60"
         style="font-variant:normal;font-weight:normal;font-size:11.0002px;font-family:Arial;writing-mode:lr-tb;fill:#262626;fill-opacity:1;fill-rule:nonzero;stroke:none"
         x="-80.1418"
         y="-201.8266">Yaw moment [N*m]</tspan></text>
    <path
       id="path60"
       d="m 495,907.969 740.63,299.141 740.62,252.15 740.63,355.86 740.62,304.68"
       style="fill:none;stroke:#0072bd;stroke-width:15;stroke-linecap:butt;stroke-linejoin:round;stroke-miterlimit:10;stroke-dasharray:none;stroke-opacity:1"
       transform="matrix(0.13333333,0,0,-0.13333333,0,388)" />
    <path
       id="path61"
       d="m 525,907.969 c 0,16.601 -13.441,30 -30,30 -16.559,0 -30,-13.399 -30,-30 0,-16.559 13.441,-30 30,-30 16.559,0 30,13.441 30,30 z"
       style="fill:none;stroke:#0072bd;stroke-width:15;stroke-linecap:butt;stroke-linejoin:miter;stroke-miterlimit:10;stroke-dasharray:none;stroke-opacity:1"
       transform="matrix(0.13333333,0,0,-0.13333333,0,388)" />
    <path
       id="path62"
       d="m 1265.63,1207.11 c 0,16.56 -13.44,30 -30,30 -16.57,0 -30,-13.44 -30,-30 0,-16.56 13.43,-30 30,-30 16.56,0 30,13.44 30,30 z"
       style="fill:none;stroke:#0072bd;stroke-width:15;stroke-linecap:butt;stroke-linejoin:miter;stroke-miterlimit:10;stroke-dasharray:none;stroke-opacity:1"
       transform="matrix(0.13333333,0,0,-0.13333333,0,388)" />
    <path
       id="path63"
       d="m 2006.25,1459.26 c 0,16.56 -13.44,30 -30,30 -16.56,0 -30,-13.44 -30,-30 0,-16.56 13.44,-30 30,-30 16.56,0 30,13.44 30,30 z"
       style="fill:none;stroke:#0072bd;stroke-width:15;stroke-linecap:butt;stroke-linejoin:miter;stroke-miterlimit:10;stroke-dasharray:none;stroke-opacity:1"
       transform="matrix(0.13333333,0,0,-0.13333333,0,388)" />
    <path
       id="path64"
       d="m 2746.88,1815.12 c 0,16.52 -13.44,30 -30,30 -16.57,0 -30,-13.48 -30,-30 0,-16.6 13.43,-30 30,-30 16.56,0 30,13.4 30,30 z"
       style="fill:none;stroke:#0072bd;stroke-width:15;stroke-linecap:butt;stroke-linejoin:miter;stroke-miterlimit:10;stroke-dasharray:none;stroke-opacity:1"
       transform="matrix(0.13333333,0,0,-0.13333333,0,388)" />
    <path
       id="path65"
       d="m 3487.5,2119.8 c 0,16.57 -13.44,30 -30,30 -16.56,0 -30,-13.43 -30,-30 0,-16.6 13.44,-30 30,-30 16.56,0 30,13.4 30,30 z"
       style="fill:none;stroke:#0072bd;stroke-width:15;stroke-linecap:butt;stroke-linejoin:miter;stroke-miterlimit:10;stroke-dasharray:none;stroke-opacity:1"
       transform="matrix(0.13333333,0,0,-0.13333333,0,388)" />
    <path
       id="path66"
       d="M 2716.88,2208.2 1976.25,1446.56 1235.63,893.281"
       style="fill:none;stroke:#d95319;stroke-width:15;stroke-linecap:butt;stroke-linejoin:round;stroke-miterlimit:10;stroke-dasharray:none;stroke-opacity:1"
       transform="matrix(0.13333333,0,0,-0.13333333,0,388)" />
    <path
       id="path67"
       d="m 2694.38,2185.7 h 45 v 45 h -45 z"
       style="fill:none;stroke:#d95319;stroke-width:15;stroke-linecap:butt;stroke-linejoin:miter;stroke-miterlimit:10;stroke-dasharray:none;stroke-opacity:1"
       transform="matrix(0.13333333,0,0,-0.13333333,0,388)" />
    <path
       id="path68"
       d="m 1953.75,1424.06 h 45 v 45 h -45 z"
       style="fill:none;stroke:#d95319;stroke-width:15;stroke-linecap:butt;stroke-linejoin:miter;stroke-miterlimit:10;stroke-dasharray:none;stroke-opacity:1"
       transform="matrix(0.13333333,0,0,-0.13333333,0,388)" />
    <path
       id="path69"
       d="m 1213.13,870.781 h 45 v 45 h -45 z"
       style="fill:none;stroke:#d95319;stroke-width:15;stroke-linecap:butt;stroke-linejoin:miter;stroke-miterlimit:10;stroke-dasharray:none;stroke-opacity:1"
       transform="matrix(0.13333333,0,0,-0.13333333,0,388)" />
    <path
       id="path70"
       d="M 2716.88,2434.92 1976.25,1448.79 1235.63,692.93"
       style="fill:none;stroke:#edb120;stroke-width:15;stroke-linecap:butt;stroke-linejoin:round;stroke-miterlimit:10;stroke-dasharray:none;stroke-opacity:1"
       transform="matrix(0.13333333,0,0,-0.13333333,0,388)" />
    <path
       id="path71"
       d="m 2686.88,2434.92 30,-39.88 30,39.88 -30,39.88 z"
       style="fill:none;stroke:#edb120;stroke-width:15;stroke-linecap:butt;stroke-linejoin:miter;stroke-miterlimit:10;stroke-dasharray:none;stroke-opacity:1"
       transform="matrix(0.13333333,0,0,-0.13333333,0,388)" />
    <path
       id="path72"
       d="m 1946.25,1448.83 30,-39.92 30,39.92 -30,39.88 z"
       style="fill:none;stroke:#edb120;stroke-width:15;stroke-linecap:butt;stroke-linejoin:miter;stroke-miterlimit:10;stroke-dasharray:none;stroke-opacity:1"
       transform="matrix(0.13333333,0,0,-0.13333333,0,388)" />
    <path
       id="path73"
       d="m 1205.63,692.93 30,-39.879 30,39.879 -30,39.922 z"
       style="fill:none;stroke:#edb120;stroke-width:15;stroke-linecap:butt;stroke-linejoin:miter;stroke-miterlimit:10;stroke-dasharray:none;stroke-opacity:1"
       transform="matrix(0.13333333,0,0,-0.13333333,0,388)" />
    <path
       id="path74"
       d="M 2716.88,2623.44 1976.25,1484.14 1235.63,464.691"
       style="fill:none;stroke:#7e2f8e;stroke-width:15;stroke-linecap:butt;stroke-linejoin:round;stroke-miterlimit:10;stroke-dasharray:none;stroke-opacity:1"
       transform="matrix(0.13333333,0,0,-0.13333333,0,388)" />
    <path
       id="path75"
       d="m 2716.88,2653.44 v -60 m -30,30 h 60"
       style="fill:none;stroke:#7e2f8e;stroke-width:15;stroke-linecap:butt;stroke-linejoin:miter;stroke-miterlimit:10;stroke-dasharray:none;stroke-opacity:1"
       transform="matrix(0.13333333,0,0,-0.13333333,0,388)" />
    <path
       id="path76"
       d="m 1976.25,1514.14 v -60 m -30,30 h 60"
       style="fill:none;stroke:#7e2f8e;stroke-width:15;stroke-linecap:butt;stroke-linejoin:miter;stroke-miterlimit:10;stroke-dasharray:none;stroke-opacity:1"
       transform="matrix(0.13333333,0,0,-0.13333333,0,388)" />
    <path
       id="path77"
       d="m 1235.63,494.691 v -60 m -30,30 h 60"
       style="fill:none;stroke:#7e2f8e;stroke-width:15;stroke-linecap:butt;stroke-linejoin:miter;stroke-miterlimit:10;stroke-dasharray:none;stroke-opacity:1"
       transform="matrix(0.13333333,0,0,-0.13333333,0,388)" />
    <path
       id="path78"
       d="m 3457.5,1664.8 -740.62,28.79 -740.63,-42.73 -740.62,70.47 L 495,1839.41"
       style="fill:none;stroke:#77ac30;stroke-width:15;stroke-linecap:butt;stroke-linejoin:round;stroke-miterlimit:10;stroke-dasharray:none;stroke-opacity:1"
       transform="matrix(0.13333333,0,0,-0.13333333,0,388)" />
    <path
       id="path79"
       d="m 3436.29,1686.02 42.42,-42.43 m -42.42,0 42.42,42.43"
       style="fill:none;stroke:#77ac30;stroke-width:15;stroke-linecap:butt;stroke-linejoin:miter;stroke-miterlimit:10;stroke-dasharray:none;stroke-opacity:1"
       transform="matrix(0.13333333,0,0,-0.13333333,0,388)" />
    <path
       id="path80"
       d="m 2695.66,1714.8 42.43,-42.38 m -42.43,0 42.43,42.38"
       style="fill:none;stroke:#77ac30;stroke-width:15;stroke-linecap:butt;stroke-linejoin:miter;stroke-miterlimit:10;stroke-dasharray:none;stroke-opacity:1"
       transform="matrix(0.13333333,0,0,-0.13333333,0,388)" />
    <path
       id="path81"
       d="m 1955.04,1672.07 42.42,-42.42 m -42.42,0 42.42,42.42"
       style="fill:none;stroke:#77ac30;stroke-width:15;stroke-linecap:butt;stroke-linejoin:miter;stroke-miterlimit:10;stroke-dasharray:none;stroke-opacity:1"
       transform="matrix(0.13333333,0,0,-0.13333333,0,388)" />
    <path
       id="path82"
       d="m 1214.41,1742.54 42.43,-42.42 m -42.43,0 42.43,42.42"
       style="fill:none;stroke:#77ac30;stroke-width:15;stroke-linecap:butt;stroke-linejoin:miter;stroke-miterlimit:10;stroke-dasharray:none;stroke-opacity:1"
       transform="matrix(0.13333333,0,0,-0.13333333,0,388)" />
    <path
       id="path83"
       d="m 473.789,1860.62 42.422,-42.42 m -42.422,0 42.422,42.42"
       style="fill:none;stroke:#77ac30;stroke-width:15;stroke-linecap:butt;stroke-linejoin:miter;stroke-miterlimit:10;stroke-dasharray:none;stroke-opacity:1"
       transform="matrix(0.13333333,0,0,-0.13333333,0,388)" />
    <path
       id="path84"
       d="M 3457.5,1357.15 1976.25,1261.6 495,1174.3"
       style="fill:none;stroke:#4dbeee;stroke-width:15;stroke-linecap:butt;stroke-linejoin:round;stroke-miterlimit:10;stroke-dasharray:none;stroke-opacity:1"
       transform="matrix(0.13333333,0,0,-0.13333333,0,388)" />
    <path
       id="path85"
       d="m 3457.5,1387.15 v -60 m -30,30 h 60 m -51.21,21.25 42.42,-42.42 m -42.42,0 42.42,42.42"
       style="fill:none;stroke:#4dbeee;stroke-width:15;stroke-linecap:butt;stroke-linejoin:miter;stroke-miterlimit:10;stroke-dasharray:none;stroke-opacity:1"
       transform="matrix(0.13333333,0,0,-0.13333333,0,388)" />
    <path
       id="path86"
       d="m 1976.25,1291.6 v -60 m -30,30 h 60 m -51.21,21.21 42.42,-42.42 m -42.42,0 42.42,42.42"
       style="fill:none;stroke:#4dbeee;stroke-width:15;stroke-linecap:butt;stroke-linejoin:miter;stroke-miterlimit:10;stroke-dasharray:none;stroke-opacity:1"
       transform="matrix(0.13333333,0,0,-0.13333333,0,388)" />
    <path
       id="path87"
       d="m 495,1204.3 v -60 m -30,30 h 60 m -51.211,21.21 42.422,-42.42 m -42.422,0 42.422,42.42"
       style="fill:none;stroke:#4dbeee;stroke-width:15;stroke-linecap:butt;stroke-linejoin:miter;stroke-miterlimit:10;stroke-dasharray:none;stroke-opacity:1"
       transform="matrix(0.13333333,0,0,-0.13333333,0,388)" />
    <path
       id="path88"
       d="m 2212.5,405 h 1215 v 772.5 h -1215 z"
       style="fill:#ffffff;fill-opacity:1;fill-rule:nonzero;stroke:none"
       transform="matrix(0.13333333,0,0,-0.13333333,0,388)" />
    <text
       id="text88"
       xml:space="preserve"
       transform="matrix(1.3333333,0,0,1.3333333,342,246.04933)"><tspan
         id="tspan88"
         style="font-variant:normal;font-weight:normal;font-size:9px;font-family:Arial;writing-mode:lr-tb;fill:#000000;fill-opacity:1;fill-rule:nonzero;stroke:none"
         x="0"
         y="0">Original V. Tail</tspan></text>
    <path
       id="path89"
       d="m 2242.5,1102.15 h 300"
       style="fill:none;stroke:#0072bd;stroke-width:15;stroke-linecap:butt;stroke-linejoin:round;stroke-miterlimit:10;stroke-dasharray:none;stroke-opacity:1"
       transform="matrix(0.13333333,0,0,-0.13333333,0,388)" />
    <path
       id="path90"
       d="m 2422.5,1102.15 c 0,16.56 -13.44,30 -30,30 -16.56,0 -30,-13.44 -30,-30 0,-16.56 13.44,-30 30,-30 16.56,0 30,13.44 30,30 z"
       style="fill:none;stroke:#0072bd;stroke-width:15;stroke-linecap:butt;stroke-linejoin:miter;stroke-miterlimit:10;stroke-dasharray:none;stroke-opacity:1"
       transform="matrix(0.13333333,0,0,-0.13333333,0,388)" />
    <text
       id="text90"
       xml:space="preserve"
       transform="matrix(1.3333333,0,0,1.3333333,342,262.6292)"><tspan
         id="tspan90"
         style="font-variant:normal;font-weight:normal;font-size:9px;font-family:Arial;writing-mode:lr-tb;fill:#000000;fill-opacity:1;fill-rule:nonzero;stroke:none"
         x="0"
         dx="0 0 0 0 2.501955"
         y="0">Tailx1.6</tspan></text>
    <path
       id="path91"
       d="m 2242.5,977.77 h 300"
       style="fill:none;stroke:#d95319;stroke-width:15;stroke-linecap:butt;stroke-linejoin:round;stroke-miterlimit:10;stroke-dasharray:none;stroke-opacity:1"
       transform="matrix(0.13333333,0,0,-0.13333333,0,388)" />
    <path
       id="path92"
       d="m 2370,955.27 h 45 v 45 h -45 z"
       style="fill:none;stroke:#d95319;stroke-width:15;stroke-linecap:butt;stroke-linejoin:miter;stroke-miterlimit:10;stroke-dasharray:none;stroke-opacity:1"
       transform="matrix(0.13333333,0,0,-0.13333333,0,388)" />
    <text
       id="text92"
       xml:space="preserve"
       transform="matrix(1.3333333,0,0,1.3333333,342,279.20987)"><tspan
         id="tspan92"
         style="font-variant:normal;font-weight:normal;font-size:9px;font-family:Arial;writing-mode:lr-tb;fill:#000000;fill-opacity:1;fill-rule:nonzero;stroke:none"
         x="0"
         dx="0 0 0 0 2.501955"
         y="0">Tailx2.0</tspan></text>
    <path
       id="path93"
       d="m 2242.5,853.441 h 300"
       style="fill:none;stroke:#edb120;stroke-width:15;stroke-linecap:butt;stroke-linejoin:round;stroke-miterlimit:10;stroke-dasharray:none;stroke-opacity:1"
       transform="matrix(0.13333333,0,0,-0.13333333,0,388)" />
    <path
       id="path94"
       d="m 2362.5,853.441 30,-39.921 30,39.921 -30,39.879 z"
       style="fill:none;stroke:#edb120;stroke-width:15;stroke-linecap:butt;stroke-linejoin:miter;stroke-miterlimit:10;stroke-dasharray:none;stroke-opacity:1"
       transform="matrix(0.13333333,0,0,-0.13333333,0,388)" />
    <text
       id="text94"
       xml:space="preserve"
       transform="matrix(1.3333333,0,0,1.3333333,342,295.79013)"><tspan
         id="tspan94"
         style="font-variant:normal;font-weight:normal;font-size:9px;font-family:Arial;writing-mode:lr-tb;fill:#000000;fill-opacity:1;fill-rule:nonzero;stroke:none"
         x="0"
         dx="0 0 0 0 2.501955"
         y="0">Tailx2.5</tspan></text>
    <path
       id="path95"
       d="m 2242.5,729.059 h 300"
       style="fill:none;stroke:#7e2f8e;stroke-width:15;stroke-linecap:butt;stroke-linejoin:round;stroke-miterlimit:10;stroke-dasharray:none;stroke-opacity:1"
       transform="matrix(0.13333333,0,0,-0.13333333,0,388)" />
    <path
       id="path96"
       d="m 2392.5,759.059 v -60 m -30,30 h 60"
       style="fill:none;stroke:#7e2f8e;stroke-width:15;stroke-linecap:butt;stroke-linejoin:miter;stroke-miterlimit:10;stroke-dasharray:none;stroke-opacity:1"
       transform="matrix(0.13333333,0,0,-0.13333333,0,388)" />
    <text
       id="text96"
       xml:space="preserve"
       transform="matrix(1.3333333,0,0,1.3333333,342,312.3708)"><tspan
         id="tspan96"
         style="font-variant:normal;font-weight:normal;font-size:9px;font-family:Arial;writing-mode:lr-tb;fill:#000000;fill-opacity:1;fill-rule:nonzero;stroke:none"
         x="0"
         y="0">Original w. propeller</tspan></text>
    <path
       id="path97"
       d="m 2242.5,604.73 h 300"
       style="fill:none;stroke:#77ac30;stroke-width:15;stroke-linecap:butt;stroke-linejoin:round;stroke-miterlimit:10;stroke-dasharray:none;stroke-opacity:1"
       transform="matrix(0.13333333,0,0,-0.13333333,0,388)" />
    <path
       id="path98"
       d="m 2371.29,625.941 42.42,-42.421 m -42.42,0 42.42,42.421"
       style="fill:none;stroke:#77ac30;stroke-width:15;stroke-linecap:butt;stroke-linejoin:miter;stroke-miterlimit:10;stroke-dasharray:none;stroke-opacity:1"
       transform="matrix(0.13333333,0,0,-0.13333333,0,388)" />
    <text
       id="text98"
       xml:space="preserve"
       transform="matrix(1.3333333,0,0,1.3333333,342,328.95107)"><tspan
         id="tspan98"
         style="font-variant:normal;font-weight:normal;font-size:9px;font-family:Arial;writing-mode:lr-tb;fill:#000000;fill-opacity:1;fill-rule:nonzero;stroke:none"
         x="0"
         dx="0 0 0 0 2.501955"
         y="0">Tailx1.4 w. propeller</tspan></text>
    <path
       id="path99"
       d="m 2242.5,480.352 h 300"
       style="fill:none;stroke:#4dbeee;stroke-width:15;stroke-linecap:butt;stroke-linejoin:round;stroke-miterlimit:10;stroke-dasharray:none;stroke-opacity:1"
       transform="matrix(0.13333333,0,0,-0.13333333,0,388)" />
    <path
       id="path100"
       d="m 2392.5,510.352 v -60 m -30,30 h 60 m -51.21,21.207 42.42,-42.418 m -42.42,0 42.42,42.418"
       style="fill:none;stroke:#4dbeee;stroke-width:15;stroke-linecap:butt;stroke-linejoin:miter;stroke-miterlimit:10;stroke-dasharray:none;stroke-opacity:1"
       transform="matrix(0.13333333,0,0,-0.13333333,0,388)" />
    <path
       id="path101"
       d="m 2212.5,405 h 1215 v 772.5 h -1215 z"
       style="fill:none;stroke:#262626;stroke-width:5.0025;stroke-linecap:butt;stroke-linejoin:miter;stroke-miterlimit:10;stroke-dasharray:none;stroke-opacity:1"
       transform="matrix(0.13333333,0,0,-0.13333333,0,388)" />
    <path
       id="path102"
       d="m 2964.77,2606.37 c 386.25,-54.1 387.07,-292 387.07,-292"
       style="fill:none;stroke:#000000;stroke-width:13.1811;stroke-linecap:butt;stroke-linejoin:miter;stroke-miterlimit:4;stroke-dasharray:none;stroke-opacity:1"
       transform="matrix(0.13333333,0,0,-0.13333333,0,388)" />
    <path
       id="path103"
       d="m 3028.63,2565.2 -81.17,43.47 89.96,19.45 c -16.25,-16.64 -19.72,-42.07 -8.79,-62.92 z"
       style="fill:#000000;fill-opacity:1;fill-rule:evenodd;stroke:none"
       transform="matrix(0.13333333,0,0,-0.13333333,0,388)" />
    <path
       id="path104"
       d="m 3028.63,2565.19 -81.17,43.48 89.96,19.46 c -16.25,-16.64 -19.72,-42.08 -8.79,-62.94 z"
       style="fill:none;stroke:#000000;stroke-width:4.94291;stroke-linecap:butt;stroke-linejoin:round;stroke-miterlimit:4;stroke-dasharray:none;stroke-opacity:1"
       transform="matrix(0.13333333,0,0,-0.13333333,0,388)" />
    <text
       id="text104"
       xml:space="preserve"
       transform="matrix(1.3333333,0,0,1.3333333,381.36133,77.929333)"><tspan
         id="tspan104"
         style="font-variant:normal;font-weight:normal;font-size:13px;font-family:'DejaVu Sans';writing-mode:lr-tb;fill:#000000;fill-opacity:1;fill-rule:nonzero;stroke:none"
         x="0"
         dx="0 0 0 -0.27285179"
         y="0">More </tspan><tspan
         id="tspan105"
         style="font-variant:normal;font-weight:normal;font-size:13px;font-family:'DejaVu Sans';writing-mode:lr-tb;fill:#000000;fill-opacity:1;fill-rule:nonzero;stroke:none"
         x="0"
         y="16.25">stable</tspan></text>
  </g>
</svg>
